<svg xmlns="http://www.w3.org/2000/svg" viewBox="0 0 500 500"><g id="freepik--background-complete--inject-62"><rect x="397.99" y="135.79" width="63.4" height="79.31" transform="translate(138.38 536.77) rotate(-73.33)" style="fill:#f5f5f5"></rect><path d="M476.77,156.45l-.38-.1-1.07-.31-4.13-1.21-15.57-4.61L400.73,133.9l.26-.14c-5.41,18.08-11.6,38.81-18.16,60.74h0l-.16-.29,76,22.78-.24.13c5.51-18.28,10.08-33.43,13.28-44,1.61-5.3,2.87-9.45,3.73-12.3.44-1.41.77-2.5,1-3.24s.36-1.12.36-1.12l-.31,1.09c-.22.74-.53,1.82-.94,3.22-.84,2.84-2.07,7-3.63,12.29-3.16,10.63-7.67,25.84-13.12,44.19l-.06.18-.18,0-76-22.71-.22-.06.07-.22h0c6.57-21.93,12.79-42.65,18.2-60.73l.06-.19.2.06,55,16.56,15.49,4.69,4.08,1.25,1,.32Z" style="fill:#e0e0e0"></path><rect x="401.93" y="138.56" width="55.42" height="73.73" transform="translate(138.36 536.71) rotate(-73.33)" style="fill:#ebebeb"></rect><polygon points="386.37 191.4 420.92 165.79 430.02 191.01 443.69 183.07 457.01 212.55 386.37 191.4" style="fill:#e0e0e0"></polygon><path d="M443.9,168.26A5.8,5.8,0,1,1,440,161,5.8,5.8,0,0,1,443.9,168.26Z" style="fill:#e0e0e0"></path><path d="M57.79,161.51A13.32,13.32,0,0,0,66,149.36c.17-7.35-5.27-13.45-12.16-13.61s-12.62,5.65-12.8,13a13.3,13.3,0,0,0,7.71,12.58c-19.26,2.51-18.8,23.4-18.8,23.4l45.4,1.11S76.76,164.76,57.79,161.51Z" style="fill:#ebebeb"></path><path d="M429.26,72.38l4.05-.86,6.22-14.17-1.71-8.07s6.16-1.71,7.67,9,1.73,7.86,1.73,7.86,13.28-2.76,14.63-1.84c1,.67,4.13,13.78,5.79,20.9a7.93,7.93,0,0,1-3.83,9,6.06,6.06,0,0,1-1.39.49c-3.31.7-20.8,1.6-20.8,1.6l-7,1.48Z" style="fill:#f5f5f5"></path><polygon points="417.22 72.62 425.56 99.75 432.49 98.28 426.75 71.18 417.22 72.62" style="fill:#f5f5f5"></polygon><path d="M184.1,190.34a8.51,8.51,0,0,0-16.79.5,8.51,8.51,0,0,0-16.79-.36,11.5,11.5,0,0,0,2.06,8.29,34,34,0,0,0,6,6.35c3.06,2.72,5.88,5.28,8.94,8,3-2.75,5.61-5.33,8.64-8.08a33.7,33.7,0,0,0,6-6.4A11.46,11.46,0,0,0,184.1,190.34Z" style="fill:#f5f5f5"></path><path d="M200.54,176.93a4.25,4.25,0,0,0-8.39.26,4.26,4.26,0,0,0-8.4-.18,5.72,5.72,0,0,0,1,4.14,17,17,0,0,0,3,3.18l4.47,4c1.52-1.38,2.81-2.67,4.32-4a17,17,0,0,0,3-3.2A5.79,5.79,0,0,0,200.54,176.93Z" style="fill:#f5f5f5"></path></g><g id="freepik--Floor--inject-62"><path d="M479.13,448.4c0,.14-105.58.26-235.79.26S7.53,448.54,7.53,448.4s105.56-.26,235.81-.26S479.13,448.25,479.13,448.4Z" style="fill:#263238"></path></g><g id="freepik--Photos--inject-62"><rect x="102.58" y="111.63" width="71.68" height="57.31" transform="matrix(0.97, -0.25, 0.25, 0.97, -30.87, 39.39)" style="fill:#ebebeb"></rect><path d="M165.89,103.52l-.34.1-1,.27-3.76,1-14.19,3.74L96.57,121.76l.13-.23C101,138,105.93,157,111.15,177h0l-.26-.15,69.38-18-.13.21-10.38-40.24c-1.24-4.85-2.21-8.65-2.88-11.25l-.75-3c-.17-.68-.25-1-.25-1s.1.33.27,1,.45,1.65.79,2.93c.68,2.59,1.68,6.37,3,11.19,2.54,9.7,6.19,23.57,10.58,40.31l0,.16-.16.05L111,177.24l-.2,0-.06-.2h0c-5.2-20-10.12-39-14.41-55.45l0-.19.18,0,50.23-13,14.17-3.64,3.74-1,1-.23Z" style="fill:#263238"></path><rect x="105.05" y="115.25" width="66.64" height="50.09" transform="matrix(0.97, -0.25, 0.25, 0.97, -30.88, 39.38)" style="fill:#FF725E"></rect><polygon points="112.44 172.92 127.12 136.93 145.98 152.15 152.82 139.61 176.93 156.14 112.44 172.92" style="fill:#FF725E"></polygon><path d="M146,128.06a5.25,5.25,0,1,1-6.4-3.75A5.24,5.24,0,0,1,146,128.06Z" style="fill:#FF725E"></path><g style="opacity:0.2"><polygon points="112.44 172.92 127.12 136.93 145.98 152.15 152.82 139.61 176.93 156.14 112.44 172.92"></polygon></g><g style="opacity:0.2"><path d="M146,128.06a5.25,5.25,0,1,1-6.4-3.75A5.24,5.24,0,0,1,146,128.06Z"></path></g><rect x="133.92" y="59.26" width="108.31" height="86.59" transform="matrix(1, -0.07, 0.07, 1, -6.75, 13.48)" style="fill:#ebebeb"></rect><path d="M239.05,55.56l-.52,0-1.52.13-5.86.44L209,57.82l-78,5.64.26-.3c1.82,25.7,3.91,55.18,6.12,86.36h0l-.33-.29,108-7.56-.24.28c-1.78-26-3.25-47.58-4.28-62.66-.5-7.54-.9-13.46-1.17-17.51-.13-2-.23-3.56-.29-4.63s-.09-1.6-.09-1.6.06.52.14,1.55.2,2.57.35,4.56c.3,4,.74,9.93,1.3,17.45,1.1,15.11,2.67,36.73,4.56,62.8l0,.26-.26,0-108,7.67-.31,0,0-.32h0c-2.18-31.19-4.25-60.66-6.05-86.37l0-.28.28,0,78.2-5.38L231.26,56l5.81-.37,1.49-.09Z" style="fill:#263238"></path><rect x="137.65" y="64.72" width="100.7" height="75.69" transform="translate(-6.75 13.47) rotate(-4.03)" style="fill:#FF725E"></rect><polygon points="140.44 143.85 172.22 94.45 196.02 122.28 209.65 105.54 240.89 136.77 140.44 143.85" style="fill:#FF725E"></polygon><path d="M202.77,86.52a7.93,7.93,0,1,1-8.47-7.35A7.91,7.91,0,0,1,202.77,86.52Z" style="fill:#FF725E"></path><g style="opacity:0.2"><polygon points="140.44 143.85 172.22 94.45 196.02 122.28 209.65 105.54 240.89 136.77 140.44 143.85"></polygon></g><g style="opacity:0.2"><path d="M202.77,86.52a7.93,7.93,0,1,1-8.47-7.35A7.91,7.91,0,0,1,202.77,86.52Z"></path></g></g><g id="freepik--Screen--inject-62"><path d="M387.07,51l-28,0a7,7,0,0,0-6.8,7.1v5.07a6.94,6.94,0,0,1-6.79,7.1l-54.53,0a7,7,0,0,1-6.79-7.11V58a7,7,0,0,0-6.79-7.11h-9.84l-24.49,0a22,22,0,0,0-22,22L221,426a22,22,0,0,0,22,22l144,.08a22,22,0,0,0,22-22L409.07,73A22,22,0,0,0,387.07,51Z" style="fill:#fff"></path><path d="M387.07,51l.76,0a17.56,17.56,0,0,1,2.23.17A20.87,20.87,0,0,1,398.32,54a21.44,21.44,0,0,1,5,4.07,21.92,21.92,0,0,1,4.19,6.58,22.74,22.74,0,0,1,1.65,8.93c0,3.25,0,6.71,0,10.38,0,29.33,0,71.77.08,124.2s0,114.87,0,184.2v33a23.56,23.56,0,0,1-.85,6.72,22,22,0,0,1-2.81,6.2,23.83,23.83,0,0,1-4.58,5.09,22.24,22.24,0,0,1-12.72,4.93c-4.61.14-9.19,0-13.83.07l-28,0-57.53,0-29.43,0H244.65a23.21,23.21,0,0,1-14.34-4,22.47,22.47,0,0,1-8.72-12.05,24.18,24.18,0,0,1-.92-7.45v-7.42q0-14.82,0-29.44,0-29.22,0-57.55c0-37.73,0-74.12,0-108.79s0-67.61.05-98.45q0-23.11,0-44.61V73.26c0-.89.08-1.79.12-2.67s.23-1.77.45-2.63A22.54,22.54,0,0,1,226,58.64a22.33,22.33,0,0,1,18-8l19.19,0h13.76a7.07,7.07,0,0,1,4.33,1.21,7.31,7.31,0,0,1,2.69,3.54,11.75,11.75,0,0,1,.45,4.35V62a14.55,14.55,0,0,0,.07,2.1,6.91,6.91,0,0,0,1.64,3.68,6.42,6.42,0,0,0,3.36,2.09,7.73,7.73,0,0,0,2,.2h10l29,0,12.79,0c1,0,2,.05,3,0a6.57,6.57,0,0,0,2.7-.95A7,7,0,0,0,352,64.68a12.54,12.54,0,0,0,.18-2.67V59.38a14.71,14.71,0,0,1,.12-2.57,7.14,7.14,0,0,1,.83-2.36,6.9,6.9,0,0,1,3.51-3.1,11,11,0,0,1,4.37-.47l14.28,0,8.78,0,3,0-3,0-8.78,0-14.28,0a10.92,10.92,0,0,0-4.3.46,6.79,6.79,0,0,0-3.4,3,7.42,7.42,0,0,0-.8,2.29,15,15,0,0,0-.1,2.53V62a12.08,12.08,0,0,1-.17,2.73,7.21,7.21,0,0,1-3.19,4.6,6.81,6.81,0,0,1-2.8,1c-1,.09-2,0-3,0H291.44a7.66,7.66,0,0,1-2.07-.2,6.9,6.9,0,0,1-3.56-2.2,7.4,7.4,0,0,1-1.74-3.88A15.55,15.55,0,0,1,284,62V59.82a11.66,11.66,0,0,0-.43-4.22A6.91,6.91,0,0,0,281,52.26a6.66,6.66,0,0,0-4.11-1.14H244a22.62,22.62,0,0,0-9.6,1.83,21.75,21.75,0,0,0-12.52,15.12c-.22.84-.28,1.71-.44,2.57s-.1,1.74-.11,2.62V78.6q0,21.47,0,44.61c0,30.84,0,63.78,0,98.45s0,71.06,0,108.79V388q0,14.63,0,29.44v7.42a23.7,23.7,0,0,0,.89,7.27,22,22,0,0,0,8.49,11.72,22.63,22.63,0,0,0,14,3.85h14.86l29.43,0,57.53,0,28,0c4.62,0,9.25.08,13.8,0a21.72,21.72,0,0,0,12.37-4.8,23.37,23.37,0,0,0,4.47-4.95,21.81,21.81,0,0,0,2.74-6,23.38,23.38,0,0,0,.82-6.56v-6.67q0-13.32,0-26.32c0-69.33.08-131.76.11-184.2s.09-94.87.12-124.2q0-5.51,0-10.38a22.78,22.78,0,0,0-1.61-8.86,21.93,21.93,0,0,0-4.14-6.54,21.88,21.88,0,0,0-13.17-7,17.14,17.14,0,0,0-2.22-.21Z" style="fill:#263238"></path><path d="M391.33,86.64c0,.09-3.64.2-8.13.24s-8.12,0-8.12-.11,3.63-.2,8.12-.23S391.33,86.55,391.33,86.64Z" style="fill:#263238"></path><path d="M391.36,90.8c0,.09-3.63.2-8.12.24s-8.13,0-8.13-.11,3.64-.2,8.13-.24S391.36,90.7,391.36,90.8Z" style="fill:#263238"></path><path d="M391.4,95c0,.09-3.64.2-8.13.24s-8.12,0-8.12-.11,3.63-.2,8.12-.24S391.4,94.86,391.4,95Z" style="fill:#263238"></path><path d="M348.83,194.52c0,.14-15.15.26-33.85.26s-33.85-.12-33.85-.26,15.16-.26,33.85-.26S348.83,194.37,348.83,194.52Z" style="fill:#263238"></path><path d="M264.51,208.07v8.33h-1.92v-6.79h-1.67v-1.54Z" style="fill:#FF725E"></path><path d="M266,212.23c0-2.75,1.53-4.31,3.57-4.31s3.57,1.56,3.57,4.31-1.51,4.31-3.57,4.31S266,215,266,212.23Zm5.2,0c0-1.89-.66-2.68-1.63-2.68s-1.62.79-1.62,2.68.67,2.68,1.62,2.68S271.16,214.12,271.16,212.23Z" style="fill:#FF725E"></path><path d="M277.6,213.12l-1.12,1.17v2.11h-1.92v-8.33h1.92V212l3.69-3.89h2.14l-3.45,3.71,3.65,4.62h-2.25Z" style="fill:#FF725E"></path><path d="M255,223.42V226h3.16v.39H255V229h-.44V223h4v.39Z" style="fill:#263238"></path><path d="M259.11,226.75a2.21,2.21,0,1,1,2.21,2.24A2.16,2.16,0,0,1,259.11,226.75Zm4,0a1.78,1.78,0,1,0-1.78,1.86A1.75,1.75,0,0,0,263.1,226.75Z" style="fill:#263238"></path><path d="M264.84,222.68h.43V229h-.43Z" style="fill:#263238"></path><path d="M267.05,222.68h.43V229h-.43Z" style="fill:#263238"></path><path d="M268.78,226.75A2.21,2.21,0,1,1,271,229,2.16,2.16,0,0,1,268.78,226.75Zm4,0a1.78,1.78,0,1,0-1.78,1.86A1.75,1.75,0,0,0,272.77,226.75Z" style="fill:#263238"></path><path d="M280.7,224.54,279,229h-.4l-1.49-3.84-1.5,3.84h-.39l-1.68-4.42H274l1.47,4,1.51-4h.36l1.5,3.94,1.49-3.94Z" style="fill:#263238"></path><path d="M285.29,226.85h-3.8a1.89,1.89,0,0,0,3.29,1.14l.24.28a2.1,2.1,0,0,1-1.67.72,2.17,2.17,0,0,1-2.27-2.24,2.11,2.11,0,1,1,4.22,0S285.29,226.81,285.29,226.85Zm-3.79-.33h3.39a1.7,1.7,0,0,0-3.39,0Z" style="fill:#263238"></path><path d="M288.71,224.5v.42h-.11c-1,0-1.56.65-1.56,1.75V229h-.43v-4.42H287v1A1.69,1.69,0,0,1,288.71,224.5Z" style="fill:#263238"></path><path d="M289.26,228.43l.2-.34a2.62,2.62,0,0,0,1.59.53c.93,0,1.31-.33,1.31-.83,0-1.29-2.93-.34-2.93-2.07,0-.67.55-1.22,1.67-1.22a2.68,2.68,0,0,1,1.52.44l-.2.34a2.2,2.2,0,0,0-1.33-.4c-.86,0-1.24.35-1.24.83,0,1.33,2.93.39,2.93,2.07,0,.72-.62,1.21-1.75,1.21A2.81,2.81,0,0,1,289.26,228.43Z" style="fill:#263238"></path><path d="M309.91,214.83v1.57h-6.29v-1.25l3.21-3c.74-.7.87-1.13.87-1.53,0-.66-.45-1-1.33-1a2.07,2.07,0,0,0-1.73.83l-1.4-.9a3.86,3.86,0,0,1,3.3-1.55c1.86,0,3.1,1,3.1,2.47a3.35,3.35,0,0,1-1.39,2.63l-1.92,1.81Z" style="fill:#FF725E"></path><path d="M310.68,212.23c0-2.75,1.53-4.31,3.57-4.31s3.57,1.56,3.57,4.31-1.51,4.31-3.57,4.31S310.68,215,310.68,212.23Zm5.2,0c0-1.89-.66-2.68-1.63-2.68s-1.62.79-1.62,2.68.67,2.68,1.62,2.68S315.88,214.12,315.88,212.23Z" style="fill:#FF725E"></path><path d="M322.32,213.12l-1.12,1.17v2.11h-1.92v-8.33h1.92V212l3.69-3.89H327l-3.45,3.71,3.65,4.62H325Z" style="fill:#FF725E"></path><path d="M307.34,223h.43v5.54h3.42V229h-3.85Z" style="fill:#263238"></path><path d="M312,223.12a.34.34,0,0,1,.34-.34.34.34,0,1,1-.34.34Zm.13,1.42h.42V229h-.42Z" style="fill:#263238"></path><path d="M316,226.6l-1.16,1.05V229h-.42v-6.28h.42v4.44l2.83-2.58h.54l-1.9,1.79,2.09,2.63h-.52Z" style="fill:#263238"></path><path d="M322.91,226.85h-3.8a1.89,1.89,0,0,0,3.28,1.14l.25.28A2.1,2.1,0,0,1,321,229a2.17,2.17,0,0,1-2.28-2.24,2.12,2.12,0,0,1,2.12-2.25,2.1,2.1,0,0,1,2.11,2.23S322.91,226.81,322.91,226.85Zm-3.8-.33h3.39a1.7,1.7,0,0,0-3.39,0Z" style="fill:#263238"></path><path d="M323.58,228.43l.19-.34a2.62,2.62,0,0,0,1.59.53c.93,0,1.31-.33,1.31-.83,0-1.29-2.93-.34-2.93-2.07,0-.67.56-1.22,1.67-1.22a2.68,2.68,0,0,1,1.52.44l-.2.34a2.19,2.19,0,0,0-1.32-.4c-.87,0-1.25.35-1.25.83,0,1.33,2.93.39,2.93,2.07,0,.72-.62,1.21-1.74,1.21A2.77,2.77,0,0,1,323.58,228.43Z" style="fill:#263238"></path><path d="M352.62,213.85c0,1.4-1.09,2.69-3.45,2.69a5.74,5.74,0,0,1-3.18-.89l.75-1.48a4,4,0,0,0,2.38.75c1,0,1.56-.39,1.56-1.07s-.47-1-1.56-1h-.88v-1.28l1.71-1.94H346.4v-1.54h5.84v1.25l-1.88,2.14A2.36,2.36,0,0,1,352.62,213.85Z" style="fill:#FF725E"></path><path d="M353.45,215.33a1.16,1.16,0,0,1,2.31,0,1.16,1.16,0,1,1-2.31,0Z" style="fill:#FF725E"></path><path d="M364.25,214.65H362.9v1.75H361v-1.75h-4.48v-1.3l3.93-5.28h2l-3.64,5h2.23v-1.56h1.83v1.56h1.35Z" style="fill:#FF725E"></path><path d="M371.09,213.78c0,1.47-1.08,2.76-3.46,2.76a5.76,5.76,0,0,1-3.18-.89l.76-1.48a4,4,0,0,0,2.37.75c1,0,1.56-.4,1.56-1.08s-.43-1.09-1.94-1.09h-2.13l.43-4.68h5.08v1.54H367.1L367,211.2h.68C370.11,211.2,371.09,212.3,371.09,213.78Z" style="fill:#FF725E"></path><path d="M378.75,213.77a2.86,2.86,0,0,1-3.15,2.77c-2.3,0-3.73-1.44-3.73-4.13,0-2.88,1.74-4.49,4.25-4.49a4.48,4.48,0,0,1,2.32.57l-.71,1.42a2.76,2.76,0,0,0-1.56-.42,2.22,2.22,0,0,0-2.35,2.42,2.81,2.81,0,0,1,2.06-.74A2.65,2.65,0,0,1,378.75,213.77Zm-1.87.09a1.26,1.26,0,0,0-1.41-1.25,1.3,1.3,0,0,0-1.44,1.25c0,.72.53,1.24,1.46,1.24A1.25,1.25,0,0,0,376.88,213.86Z" style="fill:#FF725E"></path><path d="M348.82,228.2l.2-.32a2.81,2.81,0,0,0,2,.74c1.19,0,1.71-.52,1.71-1.16,0-1.78-3.7-.71-3.7-2.9,0-.83.65-1.57,2.1-1.57a3.2,3.2,0,0,1,1.79.53l-.16.35a2.91,2.91,0,0,0-1.63-.5c-1.15,0-1.67.53-1.67,1.19,0,1.77,3.71.72,3.71,2.87,0,.84-.67,1.57-2.14,1.57A3.05,3.05,0,0,1,348.82,228.2Z" style="fill:#263238"></path><path d="M356.64,228.68a1.36,1.36,0,0,1-.91.31,1.09,1.09,0,0,1-1.2-1.2V224.9h-.81v-.36h.81v-1H355v1h1.41v.36H355v2.85c0,.57.28.88.83.88a1,1,0,0,0,.68-.25Z" style="fill:#263238"></path><path d="M357.17,226.75a2.21,2.21,0,1,1,2.21,2.24A2.16,2.16,0,0,1,357.17,226.75Zm4,0a1.78,1.78,0,1,0-1.78,1.86A1.75,1.75,0,0,0,361.16,226.75Z" style="fill:#263238"></path><path d="M365,224.5v.42h-.1c-1,0-1.57.65-1.57,1.75V229h-.43v-4.42h.41v1A1.69,1.69,0,0,1,365,224.5Z" style="fill:#263238"></path><path d="M366,223.12a.35.35,0,1,1,.35.34A.34.34,0,0,1,366,223.12Zm.14,1.42h.42V229h-.42Z" style="fill:#263238"></path><path d="M372.11,226.85h-3.8a1.78,1.78,0,0,0,1.87,1.76,1.75,1.75,0,0,0,1.41-.62l.25.28a2.1,2.1,0,0,1-1.67.72,2.17,2.17,0,0,1-2.28-2.24A2.12,2.12,0,0,1,370,224.5a2.1,2.1,0,0,1,2.11,2.23S372.11,226.81,372.11,226.85Zm-3.79-.33h3.38a1.69,1.69,0,0,0-3.38,0Z" style="fill:#263238"></path><path d="M372.78,228.43l.19-.34a2.63,2.63,0,0,0,1.6.53c.93,0,1.3-.33,1.3-.83,0-1.29-2.93-.34-2.93-2.07,0-.67.56-1.22,1.68-1.22a2.62,2.62,0,0,1,1.51.44l-.19.34a2.22,2.22,0,0,0-1.33-.4c-.87,0-1.25.35-1.25.83,0,1.33,2.93.39,2.93,2.07,0,.72-.61,1.21-1.74,1.21A2.79,2.79,0,0,1,372.78,228.43Z" style="fill:#263238"></path><rect x="255.51" y="391.3" width="124.22" height="34.59" rx="16.59" style="fill:#FF725E"></rect><path d="M302.08,405.58v2h3.54V409h-3.54v2.79h-1.77v-7.65h5.78v1.42Z" style="fill:#fff"></path><path d="M306.59,408.87a3.24,3.24,0,1,1,3.24,3A3,3,0,0,1,306.59,408.87Zm4.73,0a1.51,1.51,0,1,0-1.49,1.63A1.48,1.48,0,0,0,311.32,408.87Z" style="fill:#fff"></path><path d="M314.19,403.7h1.71v8.11h-1.71Z" style="fill:#fff"></path><path d="M317.49,403.7h1.7v8.11h-1.7Z" style="fill:#fff"></path><path d="M320.34,408.87a3.24,3.24,0,1,1,3.24,3A3,3,0,0,1,320.34,408.87Zm4.74,0a1.51,1.51,0,1,0-1.5,1.63A1.48,1.48,0,0,0,325.08,408.87Z" style="fill:#fff"></path><path d="M337.24,405.93l-2.13,5.88h-1.65l-1.32-3.65-1.37,3.65h-1.64L327,405.93h1.61l1.39,4,1.44-4h1.45l1.4,4,1.43-4Z" style="fill:#fff"></path><path d="M405.73,248.53c0,.14-39.89.26-89.08.26s-89.09-.12-89.09-.26,39.88-.26,89.09-.26S405.73,248.38,405.73,248.53Z" style="fill:#e0e0e0"></path><rect x="228.04" y="255.16" width="70.92" height="68.62" style="fill:#f5f5f5"></rect><polygon points="233.54 317.9 253.16 282.59 269.21 305.16 278.96 293.18 293.46 317.9 233.54 317.9" style="fill:#e0e0e0"></polygon><path d="M276,275.72a5.11,5.11,0,1,1-5.1-5.1A5.1,5.1,0,0,1,276,275.72Z" style="fill:#e0e0e0"></path><rect x="298.96" y="329" width="46.6" height="45.09" style="fill:#ebebeb"></rect><polygon points="302.58 370.23 315.47 347.03 326.01 361.86 332.42 353.98 341.95 370.23 302.58 370.23" style="fill:#e0e0e0"></polygon><path d="M330.51,342.51a3.36,3.36,0,1,1-3.36-3.35A3.36,3.36,0,0,1,330.51,342.51Z" style="fill:#e0e0e0"></path><rect x="228.04" y="329" width="67.21" height="45.09" style="fill:#ebebeb"></rect><polygon points="233.25 370.23 251.85 347.03 267.05 361.86 276.3 353.98 290.04 370.23 233.25 370.23" style="fill:#e0e0e0"></polygon><path d="M269.9,345.29a3.54,3.54,0,1,1-3.54-3.36A3.45,3.45,0,0,1,269.9,345.29Z" style="fill:#e0e0e0"></path><rect x="350.4" y="329" width="46.6" height="45.09" style="fill:#ebebeb"></rect><polygon points="354.01 370.23 366.9 347.03 377.45 361.86 383.86 353.98 393.39 370.23 354.01 370.23" style="fill:#e0e0e0"></polygon><path d="M381.94,342.51a3.36,3.36,0,1,1-3.35-3.35A3.35,3.35,0,0,1,381.94,342.51Z" style="fill:#e0e0e0"></path><rect x="303.32" y="255.16" width="98.24" height="68.62" style="fill:#f5f5f5"></rect><polygon points="308.82 317.9 337 282.59 360.05 305.16 374.06 293.18 394.9 317.9 308.82 317.9" style="fill:#e0e0e0"></polygon><path d="M366.85,276.05c4.16,5.46-2,11.64-7.48,7.48C355.21,278.06,361.38,271.89,366.85,276.05Z" style="fill:#e0e0e0"></path><path d="M256.48,90.88a19.66,19.66,0,0,1-3.24.18c-2,0-4.75.08-7.79.08l-4,0a.24.24,0,0,1-.24-.24.23.23,0,0,1,.06-.16c1.4-1.5,2.61-2.77,3.47-3.65a9.61,9.61,0,0,1,1.43-1.34,9.57,9.57,0,0,1-1.21,1.54c-.8.94-2,2.25-3.33,3.77l-.18-.4,4,0c3,0,5.8,0,7.79.08A19.66,19.66,0,0,1,256.48,90.88Z" style="fill:#263238"></path><path d="M241.4,90.88a11.92,11.92,0,0,1,2.79,2.18,12.3,12.3,0,0,1,2.44,2.57,12.15,12.15,0,0,1-2.79-2.18A12.4,12.4,0,0,1,241.4,90.88Z" style="fill:#263238"></path></g><g id="freepik--Plant--inject-62"><path d="M430.27,418.69a3.7,3.7,0,0,1,.21-.5c.17-.36.39-.84.68-1.44a36.56,36.56,0,0,0,2-5.78c1.32-5.13,1.78-13-.17-22.3a118.59,118.59,0,0,0-4.13-15c-1.75-5.32-3.79-11-5.45-17.06A66.08,66.08,0,0,1,420.7,337c.26-6.93,2.31-13.86,4.57-20.75s4.58-13.65,5.28-20.44A31.12,31.12,0,0,0,426.8,277c-3-5.51-6.75-10.22-9.56-15.1a52.3,52.3,0,0,1-5.75-14.51,53.83,53.83,0,0,1-.36-22.48,41.19,41.19,0,0,1,2.34-7.94,2.64,2.64,0,0,1-.14.52c-.11.38-.27.88-.47,1.53a55.85,55.85,0,0,0-1.46,5.94,54.61,54.61,0,0,0,.58,22.31,52.38,52.38,0,0,0,5.77,14.33c2.81,4.82,6.59,9.51,9.63,15.09a31.71,31.71,0,0,1,3.87,19.25c-.7,6.91-3.05,13.7-5.3,20.59s-4.29,13.74-4.55,20.56A65.71,65.71,0,0,0,424,356.46c1.63,6.07,3.64,11.71,5.37,17a116.82,116.82,0,0,1,4.07,15.07c1.89,9.39,1.35,17.32-.06,22.47a33.23,33.23,0,0,1-2.12,5.77c-.32.59-.56,1.06-.75,1.41A2.85,2.85,0,0,1,430.27,418.69Z" style="fill:#263238"></path><path d="M421.06,266.68s-5.71-18.28,4.54-29a.63.63,0,0,1,1.08.31C427.23,241,427.92,250.22,421.06,266.68Z" style="fill:#FF725E"></path><path d="M424.49,243.79a17.66,17.66,0,0,1-.39,3.37c-.38,2.32-.82,5.05-1.3,8.06s-.91,5.74-1.28,8.06a18.17,18.17,0,0,1-.61,3.34,14.62,14.62,0,0,1,.1-3.4c.19-2.09.56-5,1.08-8.11s1.07-6,1.51-8A14.9,14.9,0,0,1,424.49,243.79Z" style="fill:#263238"></path><path d="M427.77,309.78s3.5-18.83,17.57-23.49a.63.63,0,0,1,.81.78C445.22,290,441.53,298.44,427.77,309.78Z" style="fill:#FF725E"></path><path d="M441.5,291.15a16.26,16.26,0,0,1-1.91,2.8c-1.42,1.88-3.09,4.08-4.92,6.52l-4.9,6.52a18.54,18.54,0,0,1-2.1,2.67,14.09,14.09,0,0,1,1.68-3c1.14-1.75,2.81-4.12,4.74-6.67s3.75-4.79,5.1-6.39A15.94,15.94,0,0,1,441.5,291.15Z" style="fill:#263238"></path><path d="M424,357s-2.12-19,10-27.58a.63.63,0,0,1,1,.52C434.92,333,433.84,342.17,424,357Z" style="fill:#FF725E"></path><path d="M431.7,335.2a16.4,16.4,0,0,1-1,3.23c-.81,2.21-1.76,4.8-2.82,7.67s-2,5.46-2.79,7.67a19.13,19.13,0,0,1-1.23,3.16,14.22,14.22,0,0,1,.75-3.32c.58-2,1.49-4.76,2.6-7.76s2.19-5.68,3-7.6A15.53,15.53,0,0,1,431.7,335.2Z" style="fill:#263238"></path><path d="M434.57,404.52s-1.44-19.1,11-27.21a.64.64,0,0,1,1,.56C446.37,380.93,445,390,434.57,404.52Z" style="fill:#FF725E"></path><path d="M443.07,383a17.12,17.12,0,0,1-1.13,3.19l-3.09,7.56c-1.15,2.83-2.19,5.39-3.07,7.57a18.41,18.41,0,0,1-1.34,3.11,14,14,0,0,1,.86-3.29c.66-2,1.67-4.7,2.88-7.66s2.4-5.6,3.29-7.49A15,15,0,0,1,443.07,383Z" style="fill:#263238"></path><path d="M412.85,250.62s-17-8.87-17.31-23.68a.64.64,0,0,1,1-.55C399.05,228.14,406,234.15,412.85,250.62Z" style="fill:#FF725E"></path><path d="M399.07,232a17.12,17.12,0,0,1,2.11,2.65L406,241.3c1.79,2.47,3.41,4.7,4.8,6.6a18.77,18.77,0,0,1,1.93,2.78,14.13,14.13,0,0,1-2.33-2.47c-1.35-1.61-3.12-3.9-5-6.49s-3.48-5-4.62-6.75A14.72,14.72,0,0,1,399.07,232Z" style="fill:#263238"></path><path d="M431.07,289.87s-17.48-7.82-18.71-22.59a.63.63,0,0,1,1-.6C415.94,268.26,423.28,273.84,431.07,289.87Z" style="fill:#FF725E"></path><path d="M416.19,272.15a16.69,16.69,0,0,1,2.27,2.52l5.18,6.31,5.19,6.3a18.17,18.17,0,0,1,2.1,2.66,14.32,14.32,0,0,1-2.48-2.32c-1.44-1.53-3.35-3.71-5.37-6.18s-3.78-4.77-5-6.46A15,15,0,0,1,416.19,272.15Z" style="fill:#263238"></path><path d="M421,333.65s-12-14.92-6.38-28.63a.64.64,0,0,1,1.13-.11C417.38,307.52,421.38,315.83,421,333.65Z" style="fill:#FF725E"></path><path d="M415.83,311.09a16.61,16.61,0,0,1,.88,3.28c.5,2.3,1.08,5,1.73,8s1.25,5.68,1.76,8a19.16,19.16,0,0,1,.66,3.33,13.9,13.9,0,0,1-1.15-3.2c-.59-2-1.3-4.82-2-7.95s-1.2-6-1.53-8A16.21,16.21,0,0,1,415.83,311.09Z" style="fill:#263238"></path><path d="M432.9,385.17s-17.34-8.11-18.33-22.9a.64.64,0,0,1,1-.59C418.14,363.31,425.38,369,432.9,385.17Z" style="fill:#FF725E"></path><path d="M418.32,367.2a16.64,16.64,0,0,1,2.23,2.56l5.07,6.4,5.09,6.38a18.48,18.48,0,0,1,2.05,2.7,14.24,14.24,0,0,1-2.44-2.37c-1.41-1.55-3.28-3.76-5.26-6.27s-3.71-4.82-4.92-6.53A15.46,15.46,0,0,1,418.32,367.2Z" style="fill:#263238"></path><path d="M467.46,309.88a2,2,0,0,1,0,.42c0,.34,0,.74,0,1.23-.05,1.15-.12,2.7-.21,4.64-.22,4.08-.53,9.77-.91,16.58v0c-1.24,6.93-4.77,14.61-9.51,22.07-3.48,5.49-7.12,10.48-10.26,15.13a106.28,106.28,0,0,0-7.7,12.72,54.61,54.61,0,0,0-3.6,9.34c-.31,1.14-.53,2-.67,2.64a4.9,4.9,0,0,1-.25.92,6.09,6.09,0,0,1,.11-.95c.09-.62.27-1.52.54-2.68a49.41,49.41,0,0,1,3.41-9.49A101.87,101.87,0,0,1,446,369.62c3.12-4.68,6.75-9.68,10.21-15.14,4.71-7.42,8.22-15,9.51-21.81v0c.48-6.8.88-12.48,1.17-16.56.15-1.94.28-3.49.37-4.63.05-.49.09-.89.12-1.22S467.44,309.88,467.46,309.88Z" style="fill:#263238"></path><path d="M457.13,353.43s7.34-17.68-1.9-29.27a.64.64,0,0,0-1.11.22C453.3,327.33,451.79,336.43,457.13,353.43Z" style="fill:#FF725E"></path><path d="M455.79,330.33a15.3,15.3,0,0,1,.58,3.34c.26,2.08.55,5,.78,8.15s.34,6.08.34,8.18a14.57,14.57,0,0,1-.21,3.39A19.73,19.73,0,0,1,457,350c-.16-2.34-.34-5.1-.54-8.14s-.41-5.8-.57-8.15A16.74,16.74,0,0,1,455.79,330.33Z" style="fill:#263238"></path><g style="opacity:0.30000000000000004"><path d="M457.13,353.43s7.34-17.68-1.9-29.27a.64.64,0,0,0-1.11.22C453.3,327.33,451.79,336.43,457.13,353.43Z"></path></g><path d="M434.37,396.05s5.89-18.23-4.26-29a.63.63,0,0,0-1.09.3C428.45,370.34,427.68,379.53,434.37,396.05Z" style="fill:#FF725E"></path><path d="M431.17,373.13a15.88,15.88,0,0,1,.85,3.28c.43,2,1,4.9,1.43,8.06s.83,6,1,8.12a13.45,13.45,0,0,1,.07,3.4,18.82,18.82,0,0,1-.57-3.34c-.35-2.33-.75-5.06-1.2-8.08s-.88-5.74-1.23-8.07A16.26,16.26,0,0,1,431.17,373.13Z" style="fill:#263238"></path><g style="opacity:0.30000000000000004"><path d="M434.37,396.05s5.89-18.23-4.26-29a.63.63,0,0,0-1.09.3C428.45,370.34,427.68,379.53,434.37,396.05Z"></path></g><path d="M466.48,331.82s15.69-11,14.11-25.71a.63.63,0,0,0-1-.42C477.26,307.75,471.1,314.61,466.48,331.82Z" style="fill:#FF725E"></path><g style="opacity:0.30000000000000004"><path d="M466.48,331.82s15.69-11,14.11-25.71a.63.63,0,0,0-1-.42C477.26,307.75,471.1,314.61,466.48,331.82Z"></path></g><path d="M477.75,311.61a15.48,15.48,0,0,1-1.3,3.13c-.9,1.9-2.2,4.48-3.72,7.29s-3,5.31-4.1,7.08a14.89,14.89,0,0,1-2,2.76,17.27,17.27,0,0,1,1.56-3c1.12-2.07,2.44-4.49,3.9-7.17s2.77-5.11,3.9-7.18A16.44,16.44,0,0,1,477.75,311.61Z" style="fill:#263238"></path><path d="M440.7,378s18.92-3,24-16.87a.64.64,0,0,0-.76-.84C461,361.11,452.43,364.56,440.7,378Z" style="fill:#FF725E"></path><g style="opacity:0.30000000000000004"><path d="M440.7,378s18.92-3,24-16.87a.64.64,0,0,0-.76-.84C461,361.11,452.43,364.56,440.7,378Z"></path></g><path d="M459.72,364.8a16.34,16.34,0,0,1-2.56,2.24c-1.63,1.3-3.94,3-6.54,4.91s-5,3.45-6.8,4.55a14.16,14.16,0,0,1-3,1.59,18.4,18.4,0,0,1,2.72-2l6.67-4.71,6.65-4.73A16.11,16.11,0,0,1,459.72,364.8Z" style="fill:#263238"></path><polygon points="418.31 412.8 423.74 448.4 445.41 448.36 452.71 412.8 418.31 412.8" style="fill:#455a64"></polygon><path d="M449.54,426.53a.61.61,0,0,1-.18.13,4.64,4.64,0,0,1-.57.33,8.07,8.07,0,0,1-2.43.72,8.93,8.93,0,0,1-4-.37,8.43,8.43,0,0,1-4.29-3.11,6,6,0,0,1-1-3,3.24,3.24,0,0,1,1.47-3.06,3.51,3.51,0,0,1,3.63.3,5.36,5.36,0,0,1,2.08,3.27,14.17,14.17,0,0,1,.27,4,13.57,13.57,0,0,1-.88,4.11,9,9,0,0,1-2.52,3.58,7,7,0,0,1-4.17,1.75,7.65,7.65,0,0,1-4.33-1.26A13,13,0,0,1,429.4,431a7.08,7.08,0,0,1-1.64-3.91,4.53,4.53,0,0,1,1.54-3.77,3.54,3.54,0,0,1,3.84-.24,4.12,4.12,0,0,1,2.21,2.91,5.55,5.55,0,0,1-2.74,5.63,7.7,7.7,0,0,1-5.23.76,12.34,12.34,0,0,1-3.73-1.46,20.08,20.08,0,0,1-2.08-1.42,4.06,4.06,0,0,1-.67-.56,5.53,5.53,0,0,1,.74.47c.47.31,1.17.79,2.13,1.31a12.29,12.29,0,0,0,3.67,1.33,7.33,7.33,0,0,0,5-.79,5.14,5.14,0,0,0,2.47-5.18,3.61,3.61,0,0,0-2-2.53,3,3,0,0,0-3.26.2,4,4,0,0,0-1.31,3.31,6.46,6.46,0,0,0,1.53,3.58,12.1,12.1,0,0,0,3.09,2.78,7,7,0,0,0,4,1.17,6.36,6.36,0,0,0,3.81-1.6,8.64,8.64,0,0,0,2.36-3.35,12.81,12.81,0,0,0,.85-3.93,13.25,13.25,0,0,0-.24-3.85,4.76,4.76,0,0,0-1.83-3,3,3,0,0,0-3.1-.3,2.76,2.76,0,0,0-1.25,2.61,5.68,5.68,0,0,0,.89,2.77,8.07,8.07,0,0,0,4,3,8.85,8.85,0,0,0,3.86.46A9.76,9.76,0,0,0,449.54,426.53Z" style="fill:#263238"></path></g><g id="freepik--character-2--inject-62"><circle cx="314.98" cy="144.45" r="42.01" transform="translate(122.54 432.63) rotate(-80.9)" style="fill:#e0e0e0"></circle><path d="M285.33,164.51c.45-3.08,4-7.49,7.2-7.49a8.19,8.19,0,0,1-.07-9c1.23-1.83,3.2-3.17,4-5.2.95-2.3.22-4.89.31-7.36.14-3.62,2-6.93,3.85-10.08,1.68-2.88,3.73-6,7-6.74a10.54,10.54,0,0,1,6.23,1,33.71,33.71,0,0,1,19.21,22.18c.6,2.33,1,4.85,2.63,6.65s4.73,2.95,5.25,5.44c.37,1.79-.78,3.59-.61,5.41.15,1.53,3,6,3.66,7.35a8.38,8.38,0,0,1-.43,7.36,11.25,11.25,0,0,1-6.7,5.35l-29.13-9.71c-2.74,1.56-5.47,7.6-8.62,8s-7,1.74-10-1.58A15.52,15.52,0,0,1,285.33,164.51Z" style="fill:#263238"></path><path d="M333.63,135.53a15.36,15.36,0,0,0,1.68,8.56,10,10,0,0,0,3.86,3.1,15.13,15.13,0,0,1,4.13,2.8,4.26,4.26,0,0,1,1,4.57c2.62,1,3.8,4.32,2.83,6.91a8.31,8.31,0,0,1-6.36,4.84l-12-3.62-2.64-15.33L333,135.53" style="fill:#263238"></path><path d="M335.11,151.17l.23.1a7.18,7.18,0,0,1,.66.34,8.58,8.58,0,0,1,2.11,1.76,10.33,10.33,0,0,1,1.12,1.55,9.8,9.8,0,0,1,.87,2.05,8.78,8.78,0,0,1,0,5.11l0-.11a9.17,9.17,0,0,1,4.58,6.84,8.85,8.85,0,0,1-.86,4.81,9.09,9.09,0,0,1-2,2.65,6.54,6.54,0,0,1-.7.57l-.26.18a1.76,1.76,0,0,1,.24-.21,7.79,7.79,0,0,0,.67-.59,9.27,9.27,0,0,0,1.9-2.66,8.69,8.69,0,0,0,.81-4.73,9,9,0,0,0-2.58-5.24,8.76,8.76,0,0,0-1.91-1.45l-.07,0,0-.07a8.82,8.82,0,0,0,0-5,9.41,9.41,0,0,0-.84-2,9.6,9.6,0,0,0-1.09-1.55,8.53,8.53,0,0,0-2.05-1.78c-.26-.18-.49-.28-.63-.37Z" style="fill:#455a64"></path><path d="M346.16,172.61l-8.24-5.78a21.64,21.64,0,0,0-2.81-.78s-14.5-4.1-15.06-4.28l-13.48,2.11-5.4.77a21.63,21.63,0,0,0-13.11,7.07l-2.45,2.77s9.94,12.48,30.5,12a42.08,42.08,0,0,0,5.45-.5C338.42,183.31,346.16,172.61,346.16,172.61Z" style="fill:#FF725E"></path><path d="M302.06,164.52l4.51-.64,18.81.26,4.46,2.58s-13.23,12.14-17.13,12.71C302.89,180.85,302.06,164.52,302.06,164.52Z" style="fill:#ffbe9d"></path><path d="M317.79,116.31a14.79,14.79,0,0,1,12.86,21.91,6.93,6.93,0,0,1-3.69,3.5A30.51,30.51,0,0,0,317.71,118" style="fill:#FF725E"></path><path d="M323.76,117.63c-.76-1.57.05-3.54,1.4-4.65a11.63,11.63,0,0,1,4.8-2,12.29,12.29,0,0,0,4.84-1.89,13.22,13.22,0,0,1-2.65,7.64c-1.77,2.09-4.84,3.26-7.36,2.19" style="fill:#FF725E"></path><path d="M325.51,119.43a3.87,3.87,0,0,1-3.59-.53,8.16,8.16,0,0,1-2.39-2.88,12.38,12.38,0,0,1-1.54-4.35,7.29,7.29,0,0,1,.77-4.5c2,2.13,4.2,3.92,5.34,6.6a8,8,0,0,1-.13,5.67" style="fill:#FF725E"></path><path d="M331.17,128.28a2.87,2.87,0,0,1,.1.51c0,.17.05.37.07.6s.06.51.06.81a14.94,14.94,0,0,1,0,2.09,17.92,17.92,0,0,1-.41,2.53,18.1,18.1,0,0,1-.78,2.45,15.11,15.11,0,0,1-.91,1.88c-.14.27-.29.49-.41.69s-.24.37-.34.51a2.5,2.5,0,0,1-.32.4,3.48,3.48,0,0,1,.26-.45l.31-.51c.11-.21.25-.44.38-.7a18.25,18.25,0,0,0,.87-1.89,19.72,19.72,0,0,0,.76-2.42,21.07,21.07,0,0,0,.41-2.51,19.53,19.53,0,0,0,.08-2.07c0-.3,0-.56,0-.8s0-.44-.05-.6A4,4,0,0,1,331.17,128.28Z" style="fill:#263238"></path><path d="M330,118.49a2.59,2.59,0,0,1-.41.33,4.74,4.74,0,0,1-1.31.51,10.39,10.39,0,0,1-4.67-.27h-.05V119l-.08-.34a8.44,8.44,0,0,1-.12-2.72,4.71,4.71,0,0,1,.77-2.08,4.06,4.06,0,0,1,1.08-1l.49-.24a2.74,2.74,0,0,1-.45.31,4,4,0,0,0-1,1,4.69,4.69,0,0,0-.7,2,8.08,8.08,0,0,0,.13,2.66l.07.34-.06-.07a10.71,10.71,0,0,0,4.58.32,4.9,4.9,0,0,0,1.31-.45A3,3,0,0,1,330,118.49Z" style="fill:#263238"></path><path d="M331.52,113.76s-.53.11-1.37.36a11.9,11.9,0,0,0-1.43.53,13.57,13.57,0,0,0-1.64.9,12.26,12.26,0,0,0-1.48,1.15,11.73,11.73,0,0,0-1.06,1.1c-.56.67-.84,1.13-.87,1.11s.05-.12.17-.34a8.37,8.37,0,0,1,.6-.86,9.36,9.36,0,0,1,1-1.14,11.56,11.56,0,0,1,1.49-1.18,12.06,12.06,0,0,1,1.68-.9,11.65,11.65,0,0,1,1.47-.5,8.41,8.41,0,0,1,1-.2A1.81,1.81,0,0,1,331.52,113.76Z" style="fill:#263238"></path><path d="M325.43,119.39s0,0,0,.11-.05.17-.1.3a2.45,2.45,0,0,1-.72.91,2.48,2.48,0,0,1-1.64.53,2.37,2.37,0,0,1-1.81-1.06,2.4,2.4,0,0,1-.34-2.07,2.49,2.49,0,0,1,1.09-1.34,2.3,2.3,0,0,1,1.11-.34,1.41,1.41,0,0,1,.31,0c.08,0,.11,0,.11,0s-.15,0-.42,0a2.56,2.56,0,0,0-1,.38,2.43,2.43,0,0,0-1,1.28,2.19,2.19,0,0,0,.33,1.91,2.22,2.22,0,0,0,1.66,1,2.39,2.39,0,0,0,1.55-.47,2.49,2.49,0,0,0,.73-.83C325.38,119.53,325.41,119.38,325.43,119.39Z" style="fill:#263238"></path><path d="M321,119.48s-.13-.2,0-.48a.79.79,0,0,1,.43-.34,1.6,1.6,0,0,1,.66-.07,3,3,0,0,1,1.55.46s-.7-.21-1.57-.27a1,1,0,0,0-1,.29A.9.9,0,0,0,321,119.48Z" style="fill:#263238"></path><path d="M318.76,107.17a4.64,4.64,0,0,0-.56,1.56,11.14,11.14,0,0,0-.08,1.81,12.38,12.38,0,0,0,.19,2.21,11.27,11.27,0,0,0,1.56,3.7c.3.42.56.75.74,1l.3.35a5,5,0,0,1-1.15-1.24,10.19,10.19,0,0,1-1.63-3.74,11.27,11.27,0,0,1-.19-2.25,9.94,9.94,0,0,1,.13-1.83,3.85,3.85,0,0,1,.42-1.18A1.18,1.18,0,0,1,318.76,107.17Z" style="fill:#263238"></path><path d="M320.65,111.5a2.48,2.48,0,0,1,.52.62,12,12,0,0,1,1,1.69,11.42,11.42,0,0,1,.64,1.85,2.53,2.53,0,0,1,.12.79c-.06,0-.3-1.19-.94-2.56S320.6,111.53,320.65,111.5Z" style="fill:#263238"></path><path d="M320,113.77s.65.59,1.45,1.31a11,11,0,0,1,1.41,1.37,9.08,9.08,0,0,1-1.53-1.23A6.2,6.2,0,0,1,320,113.77Z" style="fill:#263238"></path><path d="M329.59,122.34l0,0-.16.14-.63.46a9.12,9.12,0,0,1-2.3,1.12,9.34,9.34,0,0,1-2.51.46q-.49,0-.78,0l-.21,0h.21c.19,0,.45,0,.78,0a10.22,10.22,0,0,0,2.49-.48,9.61,9.61,0,0,0,2.29-1.1c.28-.17.49-.33.64-.44l.17-.12Z" style="fill:#fafafa"></path><path d="M331.74,126.75s0,0-.05.06l-.17.13a6.67,6.67,0,0,1-.62.46,10.29,10.29,0,0,1-2.29,1.16,10.84,10.84,0,0,1-2.5.57c-.32,0-.59,0-.77,0h-.21l.21,0c.18,0,.44,0,.77-.07a11.47,11.47,0,0,0,2.48-.58,12.06,12.06,0,0,0,2.28-1.13l.64-.44.17-.13Z" style="fill:#fafafa"></path><path d="M331.14,133.2l-.15.11a4.39,4.39,0,0,1-.45.27,7.78,7.78,0,0,1-1.61.64,7,7,0,0,1-1.71.23,3.72,3.72,0,0,1-.52,0l-.19,0h.71a8.31,8.31,0,0,0,1.69-.26,8,8,0,0,0,1.6-.61,4.47,4.47,0,0,0,.46-.24Z" style="fill:#fafafa"></path><path d="M332.38,132.21a1.88,1.88,0,0,1-.49.14,2,2,0,0,1-.51.06,1.62,1.62,0,0,1,.49-.14A2,2,0,0,1,332.38,132.21Z" style="fill:#fafafa"></path><path d="M328.76,139.79a3.47,3.47,0,0,1-1.65-.12s.37.05.82.09S328.76,139.77,328.76,139.79Z" style="fill:#fafafa"></path><path d="M321.83,120.7a2.08,2.08,0,0,1-.49.31,1.88,1.88,0,0,1-.52.25,2.08,2.08,0,0,1,.49-.31A2,2,0,0,1,321.83,120.7Z" style="fill:#fafafa"></path><path d="M320,116.87a6,6,0,0,0-1.08.58,7.63,7.63,0,0,0-.9.82,1.53,1.53,0,0,1,.21-.29,3.2,3.2,0,0,1,.65-.59,3.55,3.55,0,0,1,.77-.42A1.21,1.21,0,0,1,320,116.87Z" style="fill:#fafafa"></path><path d="M323.31,121.11a5.48,5.48,0,0,0,0-1.1,6.12,6.12,0,0,0-.3-1.07,1.33,1.33,0,0,1,.16.29,2.86,2.86,0,0,1,.2,1.56A.9.9,0,0,1,323.31,121.11Z" style="fill:#fafafa"></path><path d="M334.6,109.21a5.3,5.3,0,0,1-.4.42,8,8,0,0,1-1.26,1,15.58,15.58,0,0,1-2.1,1.09c-.81.36-1.72.72-2.65,1.16a10.34,10.34,0,0,0-2.42,1.54,6.08,6.08,0,0,0-1.42,1.85,4.44,4.44,0,0,0-.43,1.52,5,5,0,0,0,0,.58.85.85,0,0,1,0-.15,3,3,0,0,1,0-.43,4.36,4.36,0,0,1,.41-1.54,6.17,6.17,0,0,1,1.42-1.88,10.75,10.75,0,0,1,2.44-1.56c.93-.44,1.84-.8,2.65-1.15a17.63,17.63,0,0,0,2.1-1.07,8.27,8.27,0,0,0,1.27-1l.31-.3Z" style="fill:#fafafa"></path><path d="M333.61,113.54s0,0,0,.08l-.16.23a9.46,9.46,0,0,1-.6.81,14.7,14.7,0,0,1-2.38,2.34,14.33,14.33,0,0,1-2.85,1.72c-.39.18-.71.31-.93.39l-.26.09-.1,0,.09,0,.25-.1c.23-.09.54-.23.93-.41a15.37,15.37,0,0,0,2.82-1.73,15.7,15.7,0,0,0,2.39-2.31c.27-.33.48-.6.62-.8l.16-.22Z" style="fill:#fafafa"></path><path d="M318.38,108.41a6.5,6.5,0,0,1,1.1.59,9.13,9.13,0,0,1,3.7,4.66,7.48,7.48,0,0,1,.32,1.21s0,0,0-.08l-.07-.24a8.5,8.5,0,0,0-.27-.87,9.56,9.56,0,0,0-3.68-4.64c-.32-.21-.59-.37-.78-.47l-.22-.11Z" style="fill:#fafafa"></path><path d="M300.07,122.14c.14,1.93-1.14,3.66-2.42,5.11s-2.72,3-3,4.89c-.49,3.4,2.84,6.56,2.15,9.93-.37,1.8-1.85,3.25-2.11,5.08a6.32,6.32,0,0,0,1.86,4.83c1.17,1.34,2.53,1.15,3.57,2.6a14.67,14.67,0,0,0,4.49,4c3.74,2.05,8.22-.91,10-1.44" style="fill:#263238"></path><path d="M328.3,130.07c1.73-.75,1.86-6.92-2.46-7.63a11.8,11.8,0,0,1-4.63-2.11c-1.29-.87-1.67-3.07-2.76-4.18a10.8,10.8,0,0,0-18.17,5c-.63,2.5-.2,5.45,1.77,7.11,2.28,1.93,5.67,1.5,8.6.9s6.25-1.19,8.69.53c1.48,1,2.32,2.73,3.23,4.29s2,3.15,3.73,3.74c0,0,1.3,3,.24,5.18s1.25-1.5,1.25-1.5,4.2-7.48.51-11.29" style="fill:#263238"></path><path d="M306.43,173.35c0-4,0-15.33,0-15.31s-6.39-1.08-7.7-9.43c-.65-4.15-.43-11-.06-16.52.32-5,3.65-11.15,8.64-10.61l15.58,4a2.94,2.94,0,0,1,2.62,3h0l-.95,38.68Z" style="fill:#ffbe9d"></path><path d="M301.32,136.86a1.06,1.06,0,0,0,1,1.08,1,1,0,0,0,1.1-1,1.06,1.06,0,0,0-1-1.08A1,1,0,0,0,301.32,136.86Z" style="fill:#263238"></path><path d="M300.14,135.63c.13.14.94-.45,2.09-.45s2,.58,2.12.44-.07-.31-.44-.58a2.93,2.93,0,0,0-1.7-.53,2.84,2.84,0,0,0-1.66.54C300.19,135.32,300.07,135.57,300.14,135.63Z" style="fill:#263238"></path><path d="M311.46,137.47c.13.14,1-.46,2.1-.45s2,.58,2.12.44-.07-.31-.44-.58a3,3,0,0,0-1.7-.53,2.8,2.8,0,0,0-1.67.53C311.52,137.15,311.39,137.41,311.46,137.47Z" style="fill:#263238"></path><path d="M307.26,144.41a7.44,7.44,0,0,0-1.87-.34c-.3,0-.57-.09-.62-.29a1.47,1.47,0,0,1,.2-.88c.27-.71.56-1.45.87-2.23a37.93,37.93,0,0,0,2-5.86,38.75,38.75,0,0,0-2.44,5.68c-.29.79-.57,1.54-.83,2.26a1.64,1.64,0,0,0-.16,1.15.73.73,0,0,0,.48.43,2,2,0,0,0,.5.07A7.71,7.71,0,0,0,307.26,144.41Z" style="fill:#263238"></path><path d="M306.43,158a21.28,21.28,0,0,0,11.19-3c-.09,0-3.08,5.81-11.08,4.93Z" style="fill:#eb996e"></path><path d="M307.59,147.73c-.14-.7.7-.93,1.31-1.32s1-.88,1.54-.45a2.24,2.24,0,0,1,.71,1,1.35,1.35,0,0,1-.4,1.67,2.48,2.48,0,0,1-1.25.65,1.71,1.71,0,0,1-1.35-.32,1.35,1.35,0,0,1-.52-1.26" style="fill:#eb996e"></path><path d="M310.65,145.21c-.19,0-.19,1.24-1.27,2.13s-2.4.74-2.41.92.3.24.86.26a3.11,3.11,0,0,0,2-.7,2.67,2.67,0,0,0,1-1.78C310.87,145.52,310.73,145.21,310.65,145.21Z" style="fill:#263238"></path><path d="M311.29,134.9c.11.31,1.26.16,2.61.33s2.45.54,2.63.26-.11-.43-.55-.74a4.41,4.41,0,0,0-2-.68,4.35,4.35,0,0,0-2,.23C311.49,134.5,311.24,134.75,311.29,134.9Z" style="fill:#263238"></path><path d="M300.3,131.65c.2.26,1,0,1.95,0s1.76.18,1.95-.09-.05-.4-.4-.65a2.83,2.83,0,0,0-3.14.09C300.32,131.25,300.21,131.52,300.3,131.65Z" style="fill:#263238"></path><path d="M326.42,153.38c-2.29.47-2.5-.7-4.21-2.3a7.5,7.5,0,0,1-2.31-6.36c.26-2.05,1.36-4.13.65-6.07-.94-2.57-4.53-3.36-5.49-5.92-.55-1.49-.06-3.23-.68-4.69a5.57,5.57,0,0,0-3.44-2.66,14.27,14.27,0,0,1-4.09-1.78c-1.18-.92-1.92-2.65-1.16-3.93a79.61,79.61,0,0,1,18.25,4.43,7.08,7.08,0,0,1,3.6,2.33,7.41,7.41,0,0,1,.74,4.48l-1,22.49" style="fill:#263238"></path><path d="M331.74,150.58s0,0,.09-.1a3.43,3.43,0,0,0,.23-.33,4.37,4.37,0,0,0,.55-1.46,5.07,5.07,0,0,0-.13-2.47,4.69,4.69,0,0,0-1.94-2.61c-1-.7-2.28-1.19-3.1-2.3a2.5,2.5,0,0,1-.46-2,10.87,10.87,0,0,1,.73-2.17,6.22,6.22,0,0,0-.11-5,5.38,5.38,0,0,0-1.69-2.1,6.65,6.65,0,0,0-2.56-1.07c-.91-.2-1.81-.32-2.65-.57a5.24,5.24,0,0,1-2.21-1.21,3.71,3.71,0,0,1-1-2.2,17.94,17.94,0,0,0-.39-2.42,8.33,8.33,0,0,0-2.26-3.95,6.57,6.57,0,0,0-3.54-1.76,5.22,5.22,0,0,0-3.23.49,5.15,5.15,0,0,0-1.87,1.61,4.41,4.41,0,0,0-.65,1.42,2,2,0,0,0-.08.54,4.94,4.94,0,0,1,2.69-3.39,5.13,5.13,0,0,1,3.1-.42,6.33,6.33,0,0,1,3.37,1.73,8.09,8.09,0,0,1,2.14,3.81,17.72,17.72,0,0,1,.37,2.4,4.08,4.08,0,0,0,1.05,2.39,5.65,5.65,0,0,0,2.37,1.31c.88.26,1.78.38,2.67.58a6.27,6.27,0,0,1,2.42,1,5.19,5.19,0,0,1,1.59,2,5.86,5.86,0,0,1,.11,4.71,12,12,0,0,0-.73,2.24,2.8,2.8,0,0,0,.53,2.19c.91,1.2,2.24,1.66,3.2,2.33a4.51,4.51,0,0,1,1.89,2.46,5,5,0,0,1,.19,2.38A5.46,5.46,0,0,1,331.74,150.58Z" style="fill:#455a64"></path><path d="M320.88,142.29a21.15,21.15,0,0,0-1,13.92,8.59,8.59,0,0,1,.58,4.16c-.35,1.5-1.6,2.58-2.51,3.81a9.4,9.4,0,0,0,2.88,13.74c.24-1.38,1.52-2.31,2.78-2.91a11.48,11.48,0,0,0,3.61-2c1-1,1.23-2.86.12-3.69,3.21-.84,5-4.66,4.36-7.91s-3.32-5.82-6.33-7.23" style="fill:#263238"></path><path d="M324.31,174.71c-.58.31-1.14.59-1.21,1.24a8.54,8.54,0,0,0,.92,2.83,3.93,3.93,0,0,1-5.14,5,2.05,2.05,0,0,0,2-1.95,4.36,4.36,0,0,0-1-2.85,29.35,29.35,0,0,1-1.87-2.45c-1.06-1.82-2.63-6.75-1.42-9.51" style="fill:#263238"></path><path d="M327.23,169.39l.19-.16.58-.47a13.09,13.09,0,0,0,1.87-1.94,9.69,9.69,0,0,0,1.78-3.55,8,8,0,0,0-.23-4.79,7,7,0,0,0-1.32-2.13c-.54-.62-1.13-1.16-1.68-1.68a17.88,17.88,0,0,1-1.49-1.56,6.86,6.86,0,0,1-1-1.62,4.33,4.33,0,0,1-.32-2.68,3,3,0,0,1,.28-.69.83.83,0,0,1,.14-.22,4.58,4.58,0,0,0-.35.93,4.37,4.37,0,0,0,.38,2.61,6.55,6.55,0,0,0,1,1.57,17.82,17.82,0,0,0,1.5,1.53c.55.52,1.14,1.06,1.69,1.68a7.27,7.27,0,0,1,1.35,2.19,8.08,8.08,0,0,1,.23,4.91A9.57,9.57,0,0,1,330,166.9a11.38,11.38,0,0,1-1.94,1.92c-.25.2-.45.34-.59.44A1.1,1.1,0,0,1,327.23,169.39Z" style="fill:#455a64"></path></g><g id="freepik--character-1--inject-62"><path d="M231.7,245.87a8.09,8.09,0,0,1,.81,7.26c-.5,1.32-1.37,2.79-.69,4s2.44,1.3,3.81,1.77a5.36,5.36,0,0,1,3.37,6,6.59,6.59,0,0,0-.42,2.64,5.6,5.6,0,0,0,1.58,2.28,6.68,6.68,0,0,1-3.92,10.87,8.51,8.51,0,0,0-3.07.7c-1,.64-1.49,1.88-2.21,2.85a5.61,5.61,0,0,1-10.09-3.33" style="fill:#263238"></path><path d="M214.23,238.25c2.47-1.57,3.06-5.19,1.73-7.79a9.52,9.52,0,0,0-7.05-4.63,13.43,13.43,0,0,0-11.57,3.83c-1.59,1.64-2.87,3.78-5,4.53-1.89.65-4,.06-6,.32a9,9,0,0,0-6.32,4.55,19.56,19.56,0,0,0-2.25,7.69c-.29,2.45-.48,5.14-2.18,6.93s-4.27,2.11-6.34,3.35a8.67,8.67,0,0,0-2.57,11.85c.81,1.19,2,2.29,2.08,3.73s-.76,2.48-1.16,3.74a5.85,5.85,0,0,0,5,7.27c1.71.1,3.54-.57,5.07.2s2.09,2.59,3.07,4a7.32,7.32,0,0,0,8.93,2.3c1.25-.61,2.44-1.63,3.84-1.54s2.49,1.29,3.87,1.55c1.79.35,3.5-1,4.57-2.46s1.81-3.24,3.18-4.45c1.79-1.59,4.31-2,6.57-2.77a18.54,18.54,0,0,0,10.47-26" style="fill:#263238"></path><path d="M219.45,242.16a4.1,4.1,0,0,1,3.66,4.18h0l-2.45,55.45c-.1,6.55-9.67,10.23-16.68,10.07h0c-7.09-.17-7.31-3.64-7.4-9.87-.15-10.41-.14-14.32-.14-14.26s-8.95-1.5-10.78-13.18c-.9-5.81-.59-15.33-.08-23.11.45-7,5.11-15.59,12.09-14.83Z" style="fill:#b78876"></path><path d="M188.19,259.54a1.51,1.51,0,0,0,1.44,1.52,1.44,1.44,0,0,0,1.55-1.35,1.49,1.49,0,0,0-1.44-1.51A1.42,1.42,0,0,0,188.19,259.54Z" style="fill:#263238"></path><path d="M187.63,256.4c.18.19,1.32-.65,2.93-.64s2.79.82,3,.62-.1-.44-.62-.81a4.06,4.06,0,0,0-2.37-.74,3.91,3.91,0,0,0-2.34.75C187.71,256,187.54,256.31,187.63,256.4Z" style="fill:#263238"></path><path d="M203.94,259.54a1.5,1.5,0,0,0,1.44,1.52,1.44,1.44,0,0,0,1.54-1.35,1.48,1.48,0,0,0-1.43-1.51A1.42,1.42,0,0,0,203.94,259.54Z" style="fill:#263238"></path><path d="M203.47,256.73c.18.2,1.32-.64,2.93-.63s2.79.81,3,.62-.1-.44-.61-.82a4.16,4.16,0,0,0-2.37-.74,4,4,0,0,0-2.34.75C203.55,256.29,203.38,256.64,203.47,256.73Z" style="fill:#263238"></path><path d="M197.59,268.67a10.53,10.53,0,0,0-2.61-.48c-.41,0-.8-.13-.87-.41a2.06,2.06,0,0,1,.27-1.22l1.23-3.13c1.7-4.45,2.93-8.12,2.75-8.19s-1.71,3.5-3.4,7.95c-.41,1.1-.8,2.15-1.18,3.15a2.43,2.43,0,0,0-.21,1.62,1,1,0,0,0,.67.6,2.74,2.74,0,0,0,.7.1A10.65,10.65,0,0,0,197.59,268.67Z" style="fill:#263238"></path><path d="M196.44,287.73a29.64,29.64,0,0,0,15.64-4.13s-4,8.23-15.64,7.11Z" style="fill:#aa6550"></path><path d="M198.27,272.55a2.9,2.9,0,0,1,2.6-1.07,2.63,2.63,0,0,1,1.83,1,1.68,1.68,0,0,1,.12,1.92,1.94,1.94,0,0,1-2.11.53,6.07,6.07,0,0,1-2.06-1.24,1.75,1.75,0,0,1-.46-.48.53.53,0,0,1,0-.6" style="fill:#aa6550"></path><path d="M202.33,269.79c-.26,0-.27,1.74-1.77,3s-3.36,1-3.37,1.29.41.34,1.2.36a4.34,4.34,0,0,0,2.82-1,3.82,3.82,0,0,0,1.37-2.49C202.65,270.22,202.45,269.78,202.33,269.79Z" style="fill:#263238"></path><path d="M202.75,253.91c.16.44,1.76.23,3.65.47s3.42.75,3.67.35c.12-.18-.15-.6-.76-1a6.42,6.42,0,0,0-5.59-.63C203,253.36,202.68,253.7,202.75,253.91Z" style="fill:#263238"></path><path d="M188.23,253.46c.28.37,1.4,0,2.73,0s2.46.25,2.73-.13c.11-.18-.07-.55-.56-.9a4,4,0,0,0-4.39.13C188.26,252.9,188.11,253.28,188.23,253.46Z" style="fill:#263238"></path><path d="M213,235.73a8,8,0,0,1-9.42,7.89c-1.79-.33-3.74-1.23-5.29-.28s-1.69,3.45-3.13,4.7c-2.06,1.79-5.33.11-7.94.89-2,.59-3.28,2.52-4.62,4.15s-3.35,3.16-5.37,2.56a23.72,23.72,0,0,1,.81-5.38,8,8,0,0,1,3-4.39,26.3,26.3,0,0,0,2.58-1.5c1.68-1.35,2.07-3.71,3.1-5.59a8.76,8.76,0,0,1,6.67-4.43c2.3-.23,4.66.46,6.9-.11,1.66-.41,3.1-1.49,4.78-1.81,3.26-.62,6.3,1.73,8.67,4.06" style="fill:#263238"></path><path d="M219.19,261a1.3,1.3,0,0,1-.5,2.47c-3.92.89-4.44-6.77-3.56-9a22.74,22.74,0,0,1-3.94-4.14,16.5,16.5,0,0,1-1.81-7.93c-1.41.08-7.43-1.91-6.79-2.09,1.46-.42,4.46-1.37,5.25-2.64a9,9,0,0,1,7.78-4.47,7.39,7.39,0,0,1,6.65,5.84,10.62,10.62,0,0,1,9.12,5.87,12.33,12.33,0,0,1-.33,11.45,6,6,0,0,0-1.19,2.82c0,1.3.94,2.33,1.62,3.4,1.85,2.93,1.71,7,.28,10.15s-2.44,4.31-4.47,4.95c-4,1.25.63,9.45-6,9.45" style="fill:#263238"></path><path d="M219,264.24a3.42,3.42,0,0,1,5-2.9c1.18.69,2.08,2.06,2,4.7-.29,7-7.3,5.29-7.3,5.09S218.88,267.15,219,264.24Z" style="fill:#b78876"></path><path d="M221,268.55s.12.09.32.19a1.2,1.2,0,0,0,.92.06,3,3,0,0,0,1.51-2.66,3.91,3.91,0,0,0-.27-1.77,1.41,1.41,0,0,0-.88-1,.62.62,0,0,0-.74.31c-.1.19-.06.33-.1.34s-.15-.12-.08-.41a.83.83,0,0,1,.3-.43.9.9,0,0,1,.68-.15,1.74,1.74,0,0,1,1.24,1.14,4.25,4.25,0,0,1,.34,2,3.19,3.19,0,0,1-1.91,3,1.31,1.31,0,0,1-1.11-.24C221,268.72,220.92,268.56,221,268.55Z" style="fill:#aa6550"></path><path d="M167.11,268.77s-.16-.22-.4-.67a5.17,5.17,0,0,1-.63-2.09,5.42,5.42,0,0,1,.75-3.31,7,7,0,0,1,3.65-2.61c1.58-.64,3.51-1,5.21-2.3a8.82,8.82,0,0,0,3-5.75c.38-2.31.19-4.73.37-7.19a13,13,0,0,1,.74-3.64,7.26,7.26,0,0,1,2.1-3.1,6.66,6.66,0,0,1,3.45-1.41,13.16,13.16,0,0,1,3.71.11,25.31,25.31,0,0,0,3.67.51,4.59,4.59,0,0,0,3.39-1.2,14.11,14.11,0,0,0,1.91-2.81,6.42,6.42,0,0,1,2.05-2.24,7.61,7.61,0,0,1,5.27-1.14,8,8,0,0,1,4.08,1.95,10.35,10.35,0,0,1,2.15,2.73,14.3,14.3,0,0,1,1.08,2.78s0-.07,0-.2a4.15,4.15,0,0,0-.11-.57,9.58,9.58,0,0,0-.78-2.1,10.1,10.1,0,0,0-2.13-2.84,8.27,8.27,0,0,0-4.21-2.1,8,8,0,0,0-5.56,1.15,7,7,0,0,0-2.2,2.35,13,13,0,0,1-1.85,2.71,4.11,4.11,0,0,1-3.07,1.05,24.8,24.8,0,0,1-3.59-.51,13.44,13.44,0,0,0-3.86-.12,7.21,7.21,0,0,0-3.7,1.51,7.72,7.72,0,0,0-2.24,3.31,13.67,13.67,0,0,0-.77,3.78c-.17,2.51,0,4.92-.33,7.15a8.44,8.44,0,0,1-2.84,5.5c-1.58,1.21-3.49,1.64-5.09,2.31a7.19,7.19,0,0,0-3.76,2.79,5.53,5.53,0,0,0-.7,3.47,5.1,5.1,0,0,0,.73,2.12A2.62,2.62,0,0,0,167.11,268.77Z" style="fill:#455a64"></path><path d="M185.42,250.85s0,.58-.1,1.59a10.86,10.86,0,0,1-1.24,4.08,10.44,10.44,0,0,1-1.71,2.38,13.7,13.7,0,0,1-2.66,2.1,7.93,7.93,0,0,0-1.48,1.21,3.93,3.93,0,0,0-1,1.79,13.37,13.37,0,0,0,0,4.14,4.89,4.89,0,0,1-.89,3.69,9.12,9.12,0,0,1-3.06,2,11.27,11.27,0,0,0-3,1.84,4.61,4.61,0,0,0-.95,1.32,4.56,4.56,0,0,0-.37,1.45,5.07,5.07,0,0,0,1.48,4.06,3.89,3.89,0,0,0,1,.67,1.5,1.5,0,0,0,.4.14,8.24,8.24,0,0,1-1.25-1,5,5,0,0,1-1.27-3.89,4,4,0,0,1,1.25-2.5,11.3,11.3,0,0,1,2.89-1.73,9.63,9.63,0,0,0,3.24-2.13,4.29,4.29,0,0,0,.91-1.91,8.44,8.44,0,0,0,.09-2.13,13.34,13.34,0,0,1,0-4,4.86,4.86,0,0,1,2.25-2.75,14,14,0,0,0,2.7-2.18,11,11,0,0,0,1.73-2.51,10.76,10.76,0,0,0,1.12-4.23,7,7,0,0,0,0-1.19A1.25,1.25,0,0,0,185.42,250.85Z" style="fill:#455a64"></path><path d="M235.38,280.31a.84.84,0,0,0,.25-.09,3.19,3.19,0,0,0,.7-.35,5.86,5.86,0,0,0,2-2.14,5.78,5.78,0,0,0,.57-4.55,6.27,6.27,0,0,0-4.21-4.18l.11.33a9.74,9.74,0,0,0,1.87-3.52,5.08,5.08,0,0,0-.7-4.25,3.78,3.78,0,0,0-1.86-1.42,5.3,5.3,0,0,0-2.37-.12,9.17,9.17,0,0,1-2.27.09,2.28,2.28,0,0,1-1.7-1.2,4.42,4.42,0,0,1-.22-3.22c.27-1.08.74-2.12,1-3.23a9.42,9.42,0,0,0-.8-6.32,9,9,0,0,0-4-4,9.23,9.23,0,0,0-4.75-1l.17.15a4.93,4.93,0,0,0-1.7-3.1,5.34,5.34,0,0,0-2.35-1.21,4.94,4.94,0,0,0-1.66-.08,2.75,2.75,0,0,0-.56.15,5.93,5.93,0,0,1,2.17.1,5.44,5.44,0,0,1,2.23,1.23,4.7,4.7,0,0,1,1.54,2.94l0,.16H219a9,9,0,0,1,4.55,1,8.74,8.74,0,0,1,3.83,3.85,9,9,0,0,1,.73,6c-.24,1.05-.71,2.08-1,3.22a4.93,4.93,0,0,0,.26,3.57,2.8,2.8,0,0,0,2.06,1.46,9.12,9.12,0,0,0,2.41-.1,5.18,5.18,0,0,1,2.16.1,3.22,3.22,0,0,1,1.62,1.24,4.56,4.56,0,0,1,.65,3.86,9.24,9.24,0,0,1-1.76,3.38l-.19.24.3.09a5.87,5.87,0,0,1,4,3.87,5.53,5.53,0,0,1-.45,4.33,6.06,6.06,0,0,1-1.91,2.16C235.71,280.15,235.36,280.28,235.38,280.31Z" style="fill:#455a64"></path><path d="M212.27,238.48a4.26,4.26,0,0,1,1.41,1.18,6.46,6.46,0,0,1,.51,4.86l0,.18.17,0a6.79,6.79,0,0,1,4.53,4,5.29,5.29,0,0,1,.37,1.72,11.32,11.32,0,0,1-.22,1.86,12.53,12.53,0,0,0-.27,2,3.29,3.29,0,0,0,.55,2.07,8.58,8.58,0,0,0,3.49,2.62,12,12,0,0,1,3.27,2.14,8.85,8.85,0,0,1,2.63,5.89,9.29,9.29,0,0,1-.93,4.35c-.47,1-.86,1.42-.82,1.45a1.48,1.48,0,0,0,.3-.32,7.37,7.37,0,0,0,.69-1,8.9,8.9,0,0,0-1.55-10.65,12.28,12.28,0,0,0-3.36-2.25,8.18,8.18,0,0,1-3.3-2.46c-.78-1.07-.43-2.46-.22-3.72a10.58,10.58,0,0,0,.21-1.95,5.59,5.59,0,0,0-.41-1.88,7.16,7.16,0,0,0-4.87-4.18l.13.22a6.47,6.47,0,0,0-.71-5.06,2.83,2.83,0,0,0-1.1-.9A1.62,1.62,0,0,0,212.27,238.48Z" style="fill:#455a64"></path><path d="M157.42,357.9h0l-19.77-16.85-10.81,2.61s11.15,23.41,20,32.69,13.55,10.59,16.88,10.74c4.57.2,6.66-5.37,6.66-5.37l.52-18.3Z" style="fill:#b78876"></path><path d="M135.74,308.18H120.86c-2.26,0-4.27,2.61-3.46,4.75l15,29.15a3.39,3.39,0,0,0,3,1.84l18.14,0a2.6,2.6,0,0,0,2-3.84L141.07,311.5A5.94,5.94,0,0,0,135.74,308.18Z" style="fill:#455a64"></path><path d="M134.73,309.94H119.85a2.49,2.49,0,0,0-2.22,3.62l14.61,28.52a3.38,3.38,0,0,0,3,1.84h17.94a1.46,1.46,0,0,0,1.31-2.12l-14.44-28.55A5.94,5.94,0,0,0,134.73,309.94Z" style="fill:#263238"></path><path d="M133.47,321.88l-9.06,3.62-1.94,7.3,4.37,10.86,16,2.33-4.69-4.79.61-4.17s4.46-1.4,4.57-2.09-.55-3-1.24-3.08-5.36,1.63-5.36,1.63,5.54-4.39,5.39-5.09-.76-2.51-1.86-2.71-10,4-10,4L128.75,333l-1.26-5.3S135.44,325.49,133.47,321.88Z" style="fill:#b78876"></path><path d="M134.61,339c-.05,0-.22-.31-.31-.9a5,5,0,0,1,1.56-4.2c.45-.39.79-.53.82-.49a7,7,0,0,0-2.07,5.59Z" style="fill:#aa6550"></path><path d="M130.31,337.41a21.34,21.34,0,0,0,.36-2.37,10.42,10.42,0,0,1,.45-2.63A4,4,0,0,1,132,331a4.13,4.13,0,0,1,1.48-.93c2.16-.78,4.11-1.42,5.54-1.88a12.9,12.9,0,0,1,2.34-.64,12.46,12.46,0,0,1-2.23.95c-1.39.54-3.35,1.24-5.48,2a3.86,3.86,0,0,0-1.33.81,3.62,3.62,0,0,0-.75,1.24,12,12,0,0,0-.54,2.51A4.83,4.83,0,0,1,130.31,337.41Z" style="fill:#aa6550"></path><path d="M128.23,335.77c-.13,0-.1-.82.06-1.78s.39-1.73.52-1.71a3.64,3.64,0,0,1-.06,1.78C128.59,335,128.36,335.79,128.23,335.77Z" style="fill:#aa6550"></path><path d="M128,315.44a1.9,1.9,0,1,0,1.89-1.9A1.89,1.89,0,0,0,128,315.44Z" style="fill:#fafafa"></path><path d="M178.67,361.78c-.47-5.95,10.73-64,9.66-63.75-3,.6-9.12,2-17.35,12.3-4.28,5.36-13.63,32.67-15.93,39.53l-6.49-3.11a4.38,4.38,0,0,0-3.26-.21l-14.73,4.88s20,36.5,29.82,36.32c1.67,0,3.11-.12,4.39-.25h0l-20.84,39.19s-21.41,18.08-22.31,21.4h71.65S179.13,367.72,178.67,361.78Z" style="fill:#FF725E"></path><path d="M196.14,295.26l-10.51,3.26c-5.17,4.07-7.08,12.26-6.9,18.83l-3.92,54.5-.33,18.83s30.09,16.34,63.72-4.82L232.61,371l10.18-35.44c.73-5.17,1.18-15.88-.17-21-3.46-13-11.11-18.69-21.59-21,0,0-10.12,9.46-19.39,7.78A6.6,6.6,0,0,1,196.14,295.26Z" style="fill:#263238"></path><path d="M157.54,401.1a.84.84,0,0,1,.1-.26l.37-.75,1.42-2.8,5.17-9.9,0,.09c.17-4,.41-8.61.71-13.52.49-8,1.08-15.2,1.6-20.42.26-2.61.5-4.72.69-6.17.09-.69.16-1.24.22-1.67a2.83,2.83,0,0,1,.11-.58,2.39,2.39,0,0,1,0,.59c0,.43-.08,1-.14,1.68l-.53,6.18c-.44,5.22-1,12.44-1.47,20.42-.3,4.91-.56,9.53-.76,13.51v.05l0,0-5.32,9.81c-.63,1.15-1.14,2.07-1.52,2.75l-.42.72C157.6,401,157.55,401.11,157.54,401.1Z" style="fill:#263238"></path><path d="M159.84,358.59c-.14.05-1-2-2.28-4.44s-2.62-4.2-2.51-4.29a14.49,14.49,0,0,1,2.92,4.07A17.75,17.75,0,0,1,159.84,358.59Z" style="fill:#263238"></path><path d="M215.93,312.54c0,.15-8.23.26-18.37.26s-18.37-.11-18.37-.26,8.22-.26,18.37-.26S215.93,312.4,215.93,312.54Z" style="fill:#fafafa"></path><path d="M218.73,306a8.84,8.84,0,0,1-1.49,0l-4.06,0-13.36-.26-13.37-.2-4-.09a9.87,9.87,0,0,1-1.49-.09,7.12,7.12,0,0,1,1.49-.11c.95,0,2.34-.06,4-.08,3.42,0,8.15,0,13.38.05s9.95.25,13.37.41c1.71.08,3.09.15,4,.22A8,8,0,0,1,218.73,306Z" style="fill:#fafafa"></path><path d="M196.58,297.66c0,.15-2.9.78-6.49,1.67s-6.47,1.66-6.51,1.52a31.9,31.9,0,0,1,6.39-2A31.44,31.44,0,0,1,196.58,297.66Z" style="fill:#fafafa"></path><path d="M222.94,297.86a8.67,8.67,0,0,1-2.95-.18,8.83,8.83,0,0,1-2.86-.7,8.6,8.6,0,0,1,2.94.18A8.75,8.75,0,0,1,222.94,297.86Z" style="fill:#fafafa"></path><path d="M212.84,321.72a7,7,0,0,1-1.34.12c-.86.05-2.11.1-3.65.15-3.09.09-7.36.16-12.07.16s-9-.08-12.07-.18c-1.55-.05-2.8-.1-3.66-.15a5.65,5.65,0,0,1-1.34-.13,7.22,7.22,0,0,1,1.35-.07l3.65,0,12.07,0h12.06l3.66,0A5.73,5.73,0,0,1,212.84,321.72Z" style="fill:#fafafa"></path><path d="M210.24,331.68c0,.14-7.28-.25-16.23-.89s-16.21-1.26-16.2-1.4,7.28.25,16.23.88S210.25,331.54,210.24,331.68Z" style="fill:#fafafa"></path><path d="M207.66,340.47c0,.14-5.16-.2-11.5-.77s-11.48-1.14-11.46-1.28,5.16.2,11.5.76S207.67,340.33,207.66,340.47Z" style="fill:#fafafa"></path><path d="M183.21,358.87a14,14,0,0,1-7.4-1.41,27.65,27.65,0,0,1,3.7.7A27,27,0,0,1,183.21,358.87Z" style="fill:#fafafa"></path><path d="M203,386.15a6.55,6.55,0,0,1-1.26-.37c-.8-.26-1.94-.69-3.33-1.27a76.39,76.39,0,0,1-10.46-5.33,77.53,77.53,0,0,1-9.53-6.87c-1.14-1-2-1.79-2.65-2.38a6.19,6.19,0,0,1-.9-.95,6.22,6.22,0,0,1,1,.8c.64.54,1.58,1.31,2.75,2.25a93,93,0,0,0,9.56,6.71,97.14,97.14,0,0,0,10.34,5.44c1.37.61,2.48,1.09,3.25,1.41A6,6,0,0,1,203,386.15Z" style="fill:#fafafa"></path><path d="M190.65,371.41a10.72,10.72,0,0,1-2.35-.57c-1.44-.44-3.39-1.12-5.5-2s-4-1.81-5.28-2.53a10,10,0,0,1-2.06-1.28,11.89,11.89,0,0,1,2.23,1c1.35.64,3.22,1.49,5.31,2.37s4,1.62,5.41,2.14A11.33,11.33,0,0,1,190.65,371.41Z" style="fill:#fafafa"></path><path d="M213,351.71l-1.55,6-31-22.62L172,323.15a11.28,11.28,0,0,0-6.15-4.08h0c-2.3-.45-4.29.55-6.75,1.9L152,325.38a2.48,2.48,0,0,0-1.19,2.51c.11.65.48,1.12,1.45.69,2.15-1,6.68-2.3,6.68-2.3l1.19,11.43,5.26,3.81,5.25,4.05,35,34.78a15.64,15.64,0,0,0,25-4.07l5.19-14.75Z" style="fill:#b78876"></path><path d="M210.66,356.86a2.56,2.56,0,0,1,1.3.8,6.82,6.82,0,0,1,1.81,3.21,12.68,12.68,0,0,1,.34,3.66,4.74,4.74,0,0,1-.18,1.51,5.54,5.54,0,0,1-.15-1.51,17.34,17.34,0,0,0-.46-3.54,7.63,7.63,0,0,0-1.6-3.1C211.12,357.21,210.62,356.92,210.66,356.86Z" style="fill:#eb996e"></path><path d="M158.87,326.88c-.05,0,.1-.4.46-.93a4.2,4.2,0,0,1,2-1.59,2.55,2.55,0,0,1,2.5.48c.51.49.49,1,.45,1s-.18-.37-.66-.71a2.47,2.47,0,0,0-2.14-.29,4.66,4.66,0,0,0-1.86,1.36C159.17,326.61,158.92,326.91,158.87,326.88Z" style="fill:#aa6550"></path><path d="M164.42,329.93s-.29-.17-.71-.41a3.5,3.5,0,0,0-3.57,0c-.42.24-.66.45-.71.41s.11-.34.52-.68a3.19,3.19,0,0,1,2-.69,3.13,3.13,0,0,1,2,.67C164.31,329.59,164.47,329.89,164.42,329.93Z" style="fill:#aa6550"></path><path d="M256.66,435.32c-3.24-.72-8.63-21.93-8.63-21.93s2.52-7.2,2.52-9.35-11.87-6.36-11.87-6.36,5.29-39.57,8.06-63.93c.43-2,.69-3.37.72-3.86,0-.79.39-5,.4-6.56a41.75,41.75,0,0,0-.48-10.59C247,305.9,228,294.3,226.45,295.2c-5.85,3.41-15.55,32.68-20.73,53.72-5.32-2.75-11.93-6.11-12.76-6.26-1.42-.24-1.83,2.43-1.83,2.43v29.06l12.43,8.67c3.21,15.21,9.62,37.92,12.68,46.47,4.82,13.5,1,17.21,6.36,19.37l59.64-.58C286.92,444.13,259.9,436,256.66,435.32Z" style="fill:#FF725E"></path><path d="M243.49,345.88a5,5,0,0,1-.08.74c-.07.49-.18,1.2-.33,2.12-.31,1.83-.8,4.47-1.48,7.73s-1.54,7.11-2.6,11.38c-.54,2.13-1.12,4.36-1.79,6.66a31.47,31.47,0,0,1-2.8,6.89,19.84,19.84,0,0,1-10.95,8.94,12.94,12.94,0,0,1-6.26.38,19.37,19.37,0,0,1-5.09-2,58.89,58.89,0,0,1-6.56-4.36l-1.71-1.29a3.4,3.4,0,0,1-.58-.47,4.26,4.26,0,0,1,.64.4l1.76,1.21a63.27,63.27,0,0,0,6.61,4.22,19.27,19.27,0,0,0,5,1.91,12.67,12.67,0,0,0,6.06-.42A19.58,19.58,0,0,0,234,381.16a31,31,0,0,0,2.76-6.78c.68-2.29,1.27-4.52,1.81-6.64,1.09-4.25,2-8.1,2.7-11.34s1.26-5.88,1.62-7.7c.18-.88.31-1.57.42-2.1A3.3,3.3,0,0,1,243.49,345.88Z" style="fill:#263238"></path><path d="M219.72,360.69c-.07,0-.64-.85-1.69-2.19a32,32,0,0,0-4.6-4.78,33.06,33.06,0,0,0-5.51-3.7c-1.5-.79-2.49-1.2-2.46-1.27a2.3,2.3,0,0,1,.73.2,17.64,17.64,0,0,1,1.88.78,26.85,26.85,0,0,1,10.22,8.57,15.09,15.09,0,0,1,1.1,1.72A2.75,2.75,0,0,1,219.72,360.69Z" style="fill:#263238"></path><path d="M224.19,356.85c-.06,0-.56-.55-1.5-1.35a14.93,14.93,0,0,0-4.13-2.46,14.66,14.66,0,0,0-4.7-1c-1.23-.05-2,.05-2,0a5.66,5.66,0,0,1,2-.3,12.89,12.89,0,0,1,9,3.53A5.48,5.48,0,0,1,224.19,356.85Z" style="fill:#263238"></path><path d="M220.73,318.28a7.33,7.33,0,0,1-.13,1.38c-.13.88-.33,2.15-.63,3.71-.59,3.12-1.55,7.41-2.77,12.1s-2.48,8.9-3.51,11.9c-.51,1.51-.95,2.72-1.28,3.54a7.67,7.67,0,0,1-.57,1.26,8.73,8.73,0,0,1,.4-1.32l1.14-3.58c.94-3,2.15-7.24,3.37-11.92s2.23-9,2.9-12.05l.77-3.67A8.51,8.51,0,0,1,220.73,318.28Z" style="fill:#263238"></path><path d="M238.57,398.19s-.22.1-.64.2a12.57,12.57,0,0,1-1.79.29,19.48,19.48,0,0,1-11.57-2.56,14.1,14.1,0,0,1-1.51-1c-.34-.26-.51-.42-.49-.45s.82.48,2.16,1.18a22.87,22.87,0,0,0,5.52,2,23.18,23.18,0,0,0,5.86.5C237.63,398.28,238.56,398.12,238.57,398.19Z" style="fill:#263238"></path><path d="M245.45,411.72a1,1,0,0,1-.3.18,7.13,7.13,0,0,1-.9.43,13.18,13.18,0,0,1-3.56.93A20.15,20.15,0,0,1,229,410.84a40.64,40.64,0,0,1-9.5-7.45c-1.09-1.1-1.94-2-2.52-2.65a7.27,7.27,0,0,1-.87-1,7.08,7.08,0,0,1,1,.9l2.62,2.55a44.11,44.11,0,0,0,9.49,7.27,20.61,20.61,0,0,0,11.49,2.5A19.39,19.39,0,0,0,245.45,411.72Z" style="fill:#263238"></path><path d="M200.39,350a4.9,4.9,0,0,1,.27,1,22.11,22.11,0,0,1,.41,2.78,29.67,29.67,0,0,1,.05,4.17,31.32,31.32,0,0,1-.77,5.05,30.45,30.45,0,0,1-1.65,4.84,26.74,26.74,0,0,1-2,3.68,22.32,22.32,0,0,1-1.64,2.28,4.36,4.36,0,0,1-.7.75c-.07-.05.87-1.18,2.06-3.2a32.08,32.08,0,0,0,1.86-3.68,33.88,33.88,0,0,0,1.59-4.78,33.11,33.11,0,0,0,.79-5,32.12,32.12,0,0,0,.05-4.12C200.61,351.41,200.3,350,200.39,350Z" style="fill:#263238"></path><path d="M240.26,309a31.2,31.2,0,0,1-3.2,0,25.57,25.57,0,0,0-7.56.94,12.71,12.71,0,0,0-6.21,4.17,15.91,15.91,0,0,0-1.54,2.75,2.66,2.66,0,0,1,.2-.84,8.08,8.08,0,0,1,1.08-2.11,12.33,12.33,0,0,1,6.33-4.41,22.9,22.9,0,0,1,7.71-.82c1,0,1.79.11,2.34.17A2.77,2.77,0,0,1,240.26,309Z" style="fill:#263238"></path><path d="M56.31,429,40.2,448s-24.68-10-28-6.79l35.65,32.56,26.31-28.52Z" style="fill:#FF725E"></path><g style="opacity:0.30000000000000004"><path d="M56.31,429,40.2,448s-24.68-10-28-6.79l35.65,32.56,26.31-28.52Z"></path></g><path d="M52.64,456.51a2,2,0,0,1-.51,2.58,1.91,1.91,0,0,1-2.57-.48,2.09,2.09,0,0,1,.56-2.73,2,2,0,0,1,2.61.8" style="fill:#e0e0e0"></path><path d="M47.85,473.76l2.54-3-35.13-30.1s-2.22-.76-3.06.52Z" style="fill:#e0e0e0"></path><path d="M39.79,447.28c-.15.18.65,1.06,1,2.4s.13,2.49.36,2.57.88-1.17.43-2.79S39.9,447.09,39.79,447.28Z" style="fill:#263238"></path><path d="M34.64,445.42c-.19.13.29,1.11.21,2.39s-.62,2.21-.44,2.36,1.19-.73,1.26-2.32S34.79,445.25,34.64,445.42Z" style="fill:#263238"></path><path d="M28.43,448c.12.18,1.16-.47,1.58-1.83s0-2.48-.25-2.4-.16,1-.53,2.16S28.27,447.78,28.43,448Z" style="fill:#263238"></path><path d="M43.94,443.37c-.07.22,1,.71,1.87,1.68s1.41,2,1.63,1.91.06-1.36-1-2.48S44,443.15,43.94,443.37Z" style="fill:#263238"></path><path d="M47.26,439.6c-.07.07.52.81,1.8,1.62a10.66,10.66,0,0,0,2.39,1.14,12.47,12.47,0,0,0,1.52.39,3.21,3.21,0,0,0,.92.07,1,1,0,0,0,.93-.85,1.33,1.33,0,0,0-.4-1.1,3.22,3.22,0,0,0-.76-.52,9.1,9.1,0,0,0-1.45-.63,8.43,8.43,0,0,0-2.64-.42,4,4,0,0,0-2.37.49c0,.13.93-.05,2.34.09a10,10,0,0,1,2.42.55,10.3,10.3,0,0,1,1.31.62c.47.25.79.54.74.8,0,.09,0,.12-.23.16a2.35,2.35,0,0,1-.67-.05,13.54,13.54,0,0,1-3.77-1.24A18,18,0,0,0,47.26,439.6Z" style="fill:#263238"></path><path d="M47.26,440.06c0,.08,1-.23,2.05-1.3a7.85,7.85,0,0,0,1.54-2.17,8.28,8.28,0,0,0,.53-1.5,2,2,0,0,0-.31-1.94,1.13,1.13,0,0,0-1.2-.19,3.69,3.69,0,0,0-.79.49,5.32,5.32,0,0,0-1.09,1.2,5.66,5.66,0,0,0-.93,2.54,3.17,3.17,0,0,0,.46,2.39,20.35,20.35,0,0,1,.12-2.3,5.49,5.49,0,0,1,1-2.19,5.19,5.19,0,0,1,1-1c.4-.32.82-.5.93-.33a1.37,1.37,0,0,1,.09,1.15,8.25,8.25,0,0,1-.44,1.38,8.91,8.91,0,0,1-1.28,2.09C48,439.46,47.19,440,47.26,440.06Z" style="fill:#263238"></path><path d="M143.38,418.56l14,14.95c6.43,7.89,13,14.42,23,14.83h0c11.74.48,31.62,0,31.62,0L192.65,396.7,146,358.06a28.91,28.91,0,0,0-17.43-5.89h0a29.14,29.14,0,0,0-22.23,10.45L49.08,434.25l22.49,19.38,58.31-52.53Z" style="fill:#263238"></path><path d="M74.56,429,58.45,448s-24.68-10-28-6.79L66.1,473.76l26.31-28.52Z" style="fill:#FF725E"></path><path d="M70.89,456.51a2,2,0,0,1-.51,2.58,1.91,1.91,0,0,1-2.57-.48,2.09,2.09,0,0,1,.56-2.73,2,2,0,0,1,2.61.8" style="fill:#e0e0e0"></path><path d="M66.1,473.76l2.54-3-35.13-30.1s-2.22-.76-3.06.52Z" style="fill:#e0e0e0"></path><path d="M58,447.28c-.15.18.65,1.06,1,2.4s.14,2.49.36,2.57.88-1.17.43-2.79S58.15,447.09,58,447.28Z" style="fill:#263238"></path><path d="M52.89,445.42c-.19.13.29,1.11.21,2.39s-.62,2.21-.44,2.36,1.19-.73,1.26-2.32S53.05,445.25,52.89,445.42Z" style="fill:#263238"></path><path d="M46.68,448c.12.18,1.16-.47,1.58-1.83s0-2.48-.25-2.4-.16,1-.53,2.16S46.52,447.78,46.68,448Z" style="fill:#263238"></path><path d="M62.19,443.37c-.07.22,1,.71,1.87,1.68s1.41,2,1.63,1.91.06-1.36-1-2.48S62.23,443.15,62.19,443.37Z" style="fill:#263238"></path><path d="M65.51,439.6c-.07.07.52.81,1.8,1.62a10.66,10.66,0,0,0,2.39,1.14,12.47,12.47,0,0,0,1.52.39,3.21,3.21,0,0,0,.92.07,1,1,0,0,0,.93-.85,1.33,1.33,0,0,0-.4-1.1,3.22,3.22,0,0,0-.76-.52,9.1,9.1,0,0,0-1.45-.63,8.43,8.43,0,0,0-2.64-.42,4,4,0,0,0-2.37.49c0,.13.93-.05,2.35.09a9.89,9.89,0,0,1,2.41.55,10.3,10.3,0,0,1,1.31.62c.47.25.79.54.74.8,0,.09-.05.12-.23.16a2.35,2.35,0,0,1-.67-.05,13.54,13.54,0,0,1-3.77-1.24A18,18,0,0,0,65.51,439.6Z" style="fill:#263238"></path><path d="M65.51,440.06c0,.08.95-.23,2-1.3a7.85,7.85,0,0,0,1.54-2.17,8.28,8.28,0,0,0,.53-1.5,2,2,0,0,0-.31-1.94,1.13,1.13,0,0,0-1.2-.19,3.37,3.37,0,0,0-.78.49,5.15,5.15,0,0,0-1.1,1.2,5.66,5.66,0,0,0-.93,2.54,3.17,3.17,0,0,0,.46,2.39,20.35,20.35,0,0,1,.12-2.3,5.52,5.52,0,0,1,1-2.19,4.86,4.86,0,0,1,1-1c.4-.32.82-.5.93-.33a1.37,1.37,0,0,1,.09,1.15,8.25,8.25,0,0,1-.44,1.38,8.91,8.91,0,0,1-1.28,2.09C66.22,439.46,65.44,440,65.51,440.06Z" style="fill:#263238"></path><path d="M157.54,418.56l14,14.95C178,441.4,184,447.9,194,448.31h0c.25.41,28.64.35,28.64.35l-15.78-52-46.63-38.64a28.91,28.91,0,0,0-17.42-5.89h0a29.15,29.15,0,0,0-22.24,10.45L59,433.3l26.48,23,57.38-54.52Z" style="fill:#263238"></path><path d="M210,448.08a.79.79,0,0,1-.25,0l-.76,0-2.93,0c-2.54,0-6.21,0-10.75-.29a55.72,55.72,0,0,1-7.38-.93,20.53,20.53,0,0,1-4-1.25,23.19,23.19,0,0,1-3.74-2.36c-4.85-3.65-9-8.89-13.57-14l-23.9-27.4H143L135.7,409l-2,1.89-.52.48-.18.15s0-.07.15-.19l.49-.51,1.91-1.95,7.14-7.16.12-.12.11.13c6,6.82,14.55,16.53,24,27.3,4.6,5.16,8.71,10.4,13.48,14a22.63,22.63,0,0,0,3.65,2.33,19.73,19.73,0,0,0,3.89,1.24,56.62,56.62,0,0,0,7.32,1c4.52.34,8.2.37,10.73.43L209,448l.76,0Z" style="fill:#455a64"></path><path d="M139.87,352.73a2.35,2.35,0,0,1-.31,0c-.21,0-.52,0-.93.06a21,21,0,0,0-3.5.62,28.21,28.21,0,0,0-11.3,6.38c-4.2,3.63-8.18,8.95-12.86,14.6s-9.87,11.84-15.42,18.25c-15.74,18.14-29.84,33.42-36.5,40.7v-.14l3.62,3.42.92.89a1.6,1.6,0,0,1,.3.32s-.12-.09-.33-.28-.55-.49-1-.85l-3.69-3.35-.08-.07.07-.08c6.54-7.38,20.57-22.73,36.3-40.86,5.55-6.41,10.77-12.56,15.44-18.22s8.71-10.94,13-14.57a27.81,27.81,0,0,1,11.47-6.31,19.06,19.06,0,0,1,3.54-.54c.41,0,.73,0,.94,0A1,1,0,0,1,139.87,352.73Z" style="fill:#455a64"></path><path d="M143.85,387.44a7.27,7.27,0,0,1,.67,2.07,19.3,19.3,0,0,1,.43,5.22,17,17,0,0,1-1.12,5.12,7.07,7.07,0,0,1-1,1.93,27.62,27.62,0,0,0,1.64-7.08A34.74,34.74,0,0,0,143.85,387.44Z" style="fill:#455a64"></path><path d="M152,389.83a7.21,7.21,0,0,1-.46,2.23,17,17,0,0,1-6.48,8.67,7.16,7.16,0,0,1-2,1.07,25.11,25.11,0,0,0,5.58-5.15A24.81,24.81,0,0,0,152,389.83Z" style="fill:#455a64"></path><path d="M207,397.38c-.09.11-8.11-6.5-17.91-14.77s-17.67-15.06-17.57-15.17,8.11,6.5,17.91,14.77S207.08,397.27,207,397.38Z" style="fill:#455a64"></path></g><g id="freepik--speech-bubble--inject-62"><path d="M146.91,281.35,142.26,267c4.51-5.46,6.82-11.49,7.87-19a39.58,39.58,0,1,0-44.67,33.73c9,1.26,19.68-2,27-6.23l.5.75Z" style="fill:#fafafa"></path><path d="M118.46,237.44h-2.54l-5.54-7.72v-5.07s-3.92-.24-3.46,6.4,0,4.94,0,4.94-8.33,0-9,.76c-.51.52-.73,8.8-.82,13.29a4.85,4.85,0,0,0,3.44,4.89,3.48,3.48,0,0,0,.9.12c2.08,0,12.69-1.69,12.69-1.69h4.39Z" style="fill:#FF725E"></path><polygon points="125.73 236.05 124.17 253.41 119.82 253.41 119.82 236.4 125.73 236.05" style="fill:#FF725E"></polygon><path d="M110.92,203a4.38,4.38,0,0,0-.68,0l-2,.06c-.45,0-.94,0-1.49.06l-1.78.25-2.07.3-2.31.58a37.21,37.21,0,0,0-11.23,4.89A40.18,40.18,0,0,0,77.74,220.4a40.77,40.77,0,0,0-6.59,18.47,42.38,42.38,0,0,0-.11,5.42c.07.92,0,1.85.18,2.78s.28,1.86.43,2.8a39.67,39.67,0,0,0,3.77,11,42.36,42.36,0,0,0,7.21,9.93A41.87,41.87,0,0,0,93,278.31a38,38,0,0,0,12.67,3.89,23.71,23.71,0,0,0,3.38.28,29.81,29.81,0,0,0,3.41.07,40.89,40.89,0,0,0,6.85-.87A40.07,40.07,0,0,0,133,276l-.41,0,13.87,5.57.82.33L147,281q-2.1-7.65-4.08-14.84l-.07.37a39.76,39.76,0,0,0,7.4-16.95,35.6,35.6,0,0,0,.54-8.69,27.39,27.39,0,0,0-.39-4.17c-.11-.68-.21-1.36-.31-2s-.33-1.31-.49-2a39.67,39.67,0,0,0-15.48-22.57,37.66,37.66,0,0,0-9.21-4.86l-2.08-.74-2-.5-1.8-.45c-.58-.11-1.14-.17-1.66-.25-1-.14-2-.32-2.78-.36l-2-.06-1.24,0a2.85,2.85,0,0,0-.43,0l.43.06,1.24.1,2,.13c.8.07,1.72.27,2.75.42a39.48,39.48,0,0,1,31.56,29.27c.15.64.34,1.28.46,1.93l.3,2a26.24,26.24,0,0,1,.37,4.09,35.72,35.72,0,0,1-.56,8.52,39.1,39.1,0,0,1-7.31,16.58l-.12.17.05.2q2,7.19,4,14.84l.59-.52-13.87-5.59-.22-.09-.19.13a39.18,39.18,0,0,1-20,6.45,31,31,0,0,1-3.34-.06,26.08,26.08,0,0,1-3.31-.28,36.92,36.92,0,0,1-12.39-3.79,40.84,40.84,0,0,1-10.18-7.29,41.76,41.76,0,0,1-7.09-9.7,39.32,39.32,0,0,1-3.73-10.81L72,247c-.13-.9-.12-1.82-.19-2.72a41.08,41.08,0,0,1,.09-5.33,39.22,39.22,0,0,1,17.72-29.42,38,38,0,0,1,11-5c.8-.21,1.57-.41,2.28-.61l2-.33,1.76-.29c.54-.06,1-.08,1.48-.11l2-.15A2.79,2.79,0,0,0,110.92,203Z" style="fill:#263238"></path></g></svg>